<svg width="100" height="100" viewBox="0 0 100 100" fill="none" xmlns="http://www.w3.org/2000/svg">
<g clip-path="url(#clip0_363_550)">
<path d="M91.3133 41.2927C87.3816 41.2927 84.0469 43.907 82.9765 47.5093H73.3429C73.4253 48.3326 73.4665 49.156 73.4665 50.0206C73.4665 51.2145 73.3841 52.3878 73.1989 53.5406H83.3265C84.6851 56.6077 87.7316 58.7485 91.2927 58.7485C96.1095 58.7485 100 54.858 100 50.0412C100.021 45.1832 96.1301 41.2927 91.3133 41.2927ZM16.8794 53.52H26.8012C26.6365 52.3672 26.5336 51.1939 26.5336 50C26.5336 49.156 26.5747 48.3121 26.6571 47.4887H16.8794C15.6649 44.154 12.4537 41.7867 8.70729 41.7867C3.89049 41.7867 0 45.6772 0 50.494C0 55.3108 3.89049 59.2013 8.70729 59.2013C12.4537 59.2219 15.6443 56.8341 16.8794 53.52ZM46.9947 16.8794V26.7188C47.9827 26.5953 48.9914 26.5336 50 26.5336C51.0086 26.5336 52.0173 26.5953 53.0054 26.7188V16.8794C56.3401 15.6649 58.7073 12.4537 58.7073 8.70729C58.7073 3.89049 54.8168 0 50 0C45.1832 0 41.2927 3.89049 41.2927 8.70729C41.2927 12.4537 43.6599 15.6443 46.9947 16.8794ZM68.5879 35.6731L75.5661 28.6949C78.7773 30.177 82.7089 29.6007 85.3644 26.9452C88.7608 23.5488 88.7608 18.0321 85.3644 14.6357C81.9679 11.2392 76.4512 11.2392 73.0548 14.6357C70.3993 17.2911 69.823 21.2227 71.3051 24.4339L66.8794 28.8802L64.3475 31.4121C65.9325 32.6472 67.3528 34.0675 68.5879 35.6731ZM20.7905 29.4977C22.0873 29.4977 23.3429 29.2095 24.4545 28.6949L31.4121 35.6525C32.6472 34.0675 34.0675 32.6266 35.6731 31.3915L28.7155 24.4339C29.2301 23.3224 29.5183 22.0873 29.5183 20.7699C29.5183 15.9531 25.6278 12.0626 20.811 12.0626C15.9942 12.0626 12.1037 15.9531 12.1037 20.7699C12.0832 25.6072 15.9737 29.4977 20.7905 29.4977ZM31.4121 64.3269L24.4545 71.2845C23.3429 70.7699 22.1079 70.4817 20.7905 70.4817C15.9737 70.4817 12.0832 74.3722 12.0832 79.189C12.0832 84.0058 15.9737 87.8963 20.7905 87.8963C25.6072 87.8963 29.4977 84.0058 29.4977 79.189C29.4977 77.8921 29.2096 76.6365 28.6949 75.5249L35.6525 68.5673C34.0675 67.3528 32.6472 65.9325 31.4121 64.3269ZM79.2096 70.5023C77.9127 70.5023 76.6571 70.7904 75.5455 71.3051L68.5879 64.3475C67.3528 65.9325 65.9325 67.3734 64.3269 68.6085L71.2845 75.5661C70.7699 76.6776 70.4817 77.9127 70.4817 79.2301C70.4817 84.0469 74.3722 87.9374 79.189 87.9374C84.0058 87.9374 87.8963 84.0469 87.8963 79.2301C87.9168 74.3928 84.0264 70.5023 79.2096 70.5023ZM53.0054 83.1206V73.2812C52.0173 73.4047 51.0086 73.4664 50 73.4664C48.9914 73.4664 47.9827 73.4047 46.9947 73.2812V83.1206C43.6599 84.3351 41.2927 87.5463 41.2927 91.2927C41.2927 96.1095 45.1832 100 50 100C54.8168 100 58.7073 96.1095 58.7073 91.2927C58.7073 87.5463 56.3401 84.3557 53.0054 83.1206ZM50 31.1651C39.6048 31.1651 31.1651 39.6048 31.1651 50C31.1651 60.3952 39.6048 68.8349 50 68.8349C60.3952 68.8349 68.8349 60.3952 68.8349 50C68.8349 39.6048 60.3952 31.1651 50 31.1651ZM50 63.133C42.7542 63.133 36.867 57.2664 36.867 50C36.867 42.7336 42.7336 36.867 50 36.867C57.2664 36.867 63.133 42.7336 63.133 50C63.133 57.2664 57.2458 63.133 50 63.133Z" fill="#99D6EF"/>
<path fill-rule="evenodd" clip-rule="evenodd" d="M50 31.1651C39.6048 31.1651 31.1651 39.6048 31.1651 50C31.1651 60.3952 39.6048 68.8349 50 68.8349C60.3952 68.8349 68.8349 60.3952 68.8349 50C68.8349 39.6048 60.3952 31.1651 50 31.1651ZM50 63.133C42.7542 63.133 36.867 57.2664 36.867 50C36.867 42.7336 42.7336 36.867 50 36.867C57.2664 36.867 63.133 42.7336 63.133 50C63.133 57.2664 57.2458 63.133 50 63.133Z" fill="#0098D6"/>
<path d="M43.3512 52.9024C41.7456 52.9024 40.4487 51.6056 40.4487 50C40.4487 44.7303 44.7303 40.4487 50 40.4487C51.6056 40.4487 52.9024 41.7456 52.9024 43.3512C52.9024 44.9568 51.6056 46.2536 50 46.2536C47.9415 46.2536 46.2536 47.9415 46.2536 50C46.2536 51.6056 44.9568 52.9024 43.3512 52.9024Z" fill="#0098D6"/>
</g>
<defs>
<clipPath id="clip0_363_550">
<rect width="100" height="100" fill="white"/>
</clipPath>
</defs>
</svg>
