<svg width="100" height="100" viewBox="0 0 100 100" fill="none" xmlns="http://www.w3.org/2000/svg">
<path fill-rule="evenodd" clip-rule="evenodd" d="M54.2151 37.7833C52.9684 36.9503 51.5027 36.5056 50.0033 36.5055C47.9927 36.5054 46.0645 37.304 44.6427 38.7256C43.2209 40.1472 42.4221 42.0754 42.4219 44.0859C42.4218 45.5853 42.8663 47.0511 43.6992 48.2979C44.5321 49.5446 45.7161 50.5164 47.1013 51.0903C48.4865 51.6642 50.0108 51.8144 51.4814 51.522C52.952 51.2296 54.3029 50.5077 55.3632 49.4475C56.4235 48.3873 57.1456 47.0365 57.4382 45.566C57.7308 44.0954 57.5808 42.5711 57.0071 41.1858C56.4334 39.8005 55.4617 38.6164 54.2151 37.7833ZM69.2965 74.2701L81.8965 74.1652C82.6614 74.1715 83.393 74.4804 83.9316 75.0234C84.4703 75.5665 84.7725 76.3004 84.7725 77.0653C84.7725 77.8302 84.4703 78.5642 83.9316 79.1072C83.393 79.6503 82.6616 79.9586 81.8967 79.9649L67.6371 80.0695C67.1284 80.0672 66.6292 79.931 66.1898 79.6745C65.7505 79.4181 65.3864 79.0504 65.1342 78.6086L61.4807 72.2805V83.8592L50.0027 85.3074L38.5246 83.8592V72.2709L34.8656 78.6084C34.6133 79.0502 34.2492 79.4178 33.8098 79.6742C33.3704 79.9307 32.8712 80.0669 32.3625 80.0693L18.1031 79.9647C17.3382 79.9584 16.6068 79.6501 16.0682 79.107C15.5295 78.564 15.2273 77.83 15.2273 77.0651C15.2273 76.3002 15.5295 75.5663 16.0682 75.0232C16.6068 74.4802 17.3382 74.1719 18.1031 74.1656L30.7031 74.2705L38.5248 60.7242C40.5957 57.1363 45.5346 56.0367 50.0033 56.0367C54.4721 56.0367 59.4105 57.1356 61.4809 60.7227L69.2965 74.2701ZM31.5744 85.7381L54.082 88.5779C55.1317 88.7124 56.0899 89.2414 56.7636 90.0575C57.4374 90.8735 57.7754 91.9154 57.7088 92.9715C57.6422 94.0277 57.1762 95.0189 56.4053 95.7439C55.6344 96.4689 54.6165 96.8733 53.5582 96.875L30.873 96.8666C27.7631 96.8654 25.4707 93.9461 25.6594 90.9516C25.8518 87.8912 28.532 85.3541 31.5744 85.7381ZM57.5766 87.1078L68.4322 85.7381C71.4744 85.3541 74.1543 87.8906 74.3479 90.9516C74.5365 93.9461 72.2441 96.8654 69.1342 96.8666L59.0609 96.8703C59.6146 96.1357 60.0159 95.2978 60.2412 94.406C60.4665 93.5141 60.5114 92.5862 60.3731 91.6767C60.2348 90.7673 59.9162 89.8946 59.436 89.11C58.9557 88.3254 58.3235 87.6447 57.5766 87.1078Z" fill="#99D6EF"/>
<path fill-rule="evenodd" clip-rule="evenodd" d="M38.1389 14.9861C38.1389 12.6402 38.8345 10.347 40.1378 8.39645C41.4411 6.44589 43.2936 4.92562 45.4609 4.02788C47.6283 3.13014 50.0132 2.89525 52.314 3.35291C54.6148 3.81058 56.7283 4.94024 58.3871 6.59905C60.0459 8.25786 61.1756 10.3713 61.6332 12.6721C62.0909 14.973 61.856 17.3579 60.9583 19.5252C60.0605 21.6925 58.5402 23.545 56.5897 24.8483C54.6391 26.1516 52.3459 26.8473 50 26.8473C46.8542 26.8473 43.8373 25.5976 41.6129 23.3732C39.3885 21.1488 38.1389 18.1319 38.1389 14.9861ZM46.6312 18.3549C46.7582 18.4819 46.9089 18.5826 47.0748 18.6513C47.2407 18.72 47.4185 18.7554 47.598 18.7554C47.7776 18.7554 47.9554 18.72 48.1213 18.6513C48.2872 18.5826 48.4379 18.4819 48.5648 18.3549L49.9807 16.9391H50.0002C50.3881 16.939 50.7672 16.8235 51.0892 16.6071C51.4111 16.3908 51.6614 16.0835 51.8081 15.7244C51.9547 15.3653 51.9911 14.9706 51.9126 14.5908C51.8342 14.2109 51.6443 13.863 51.3674 13.5914V10.6836C51.3674 10.321 51.2233 9.97325 50.9669 9.71685C50.7105 9.46045 50.3628 9.31641 50.0002 9.31641C49.6376 9.31641 49.2898 9.46045 49.0334 9.71685C48.7771 9.97325 48.633 10.321 48.633 10.6836V13.5914C48.4472 13.7731 48.2997 13.99 48.1991 14.2296C48.0984 14.4691 48.0468 14.7263 48.0471 14.9861V15.0057L46.6312 16.4213C46.5043 16.5483 46.4036 16.699 46.3348 16.8649C46.2661 17.0307 46.2308 17.2085 46.2308 17.3881C46.2308 17.5676 46.2661 17.7454 46.3348 17.9113C46.4036 18.0772 46.5043 18.2279 46.6312 18.3549ZM96.875 52.207V54.1406C96.875 54.224 96.8586 54.3067 96.8267 54.3837C96.7948 54.4608 96.748 54.5308 96.689 54.5898C96.63 54.6488 96.56 54.6956 96.4829 54.7275C96.4059 54.7594 96.3233 54.7758 96.2398 54.7758C95.8166 54.7762 95.403 54.902 95.0512 55.1373C94.6995 55.3726 94.4253 55.7069 94.2634 56.0979C94.1015 56.4889 94.0591 56.9192 94.1415 57.3343C94.2239 57.7494 94.4275 58.1308 94.7266 58.4303C94.8457 58.5494 94.9126 58.711 94.9126 58.8795C94.9126 59.048 94.8457 59.2096 94.7266 59.3287L93.3594 60.6959C93.2402 60.815 93.0786 60.882 92.9102 60.882C92.7417 60.882 92.5801 60.815 92.4609 60.6959C92.1614 60.3971 91.7801 60.1938 91.3651 60.1115C90.9501 60.0292 90.52 60.0717 90.1291 60.2336C89.7383 60.3955 89.4041 60.6696 89.1688 61.0212C88.9336 61.3729 88.8077 61.7863 88.8072 62.2094C88.8073 62.2928 88.7908 62.3754 88.7589 62.4525C88.727 62.5295 88.6802 62.5996 88.6213 62.6586C88.5623 62.7175 88.4922 62.7643 88.4152 62.7962C88.3381 62.8282 88.2555 62.8446 88.1721 62.8445H86.2385C86.155 62.8446 86.0724 62.8282 85.9954 62.7962C85.9183 62.7643 85.8482 62.7176 85.7892 62.6586C85.7302 62.5996 85.6834 62.5296 85.6515 62.4525C85.6196 62.3754 85.6031 62.2928 85.6031 62.2094C85.6031 61.7861 85.4776 61.3723 85.2424 61.0204C85.0073 60.6684 84.673 60.3941 84.282 60.2321C83.8909 60.0701 83.4606 60.0277 83.0455 60.1102C82.6303 60.1928 82.2489 60.3966 81.9496 60.6959C81.8305 60.815 81.6689 60.882 81.5004 60.882C81.3319 60.882 81.1703 60.815 81.0512 60.6959L79.684 59.3287C79.5649 59.2096 79.4979 59.048 79.4979 58.8795C79.4979 58.711 79.5649 58.5494 79.684 58.4303C79.9828 58.1307 80.1861 57.7494 80.2684 57.3344C80.3507 56.9194 80.3082 56.4893 80.1463 56.0985C79.9844 55.7076 79.7103 55.3734 79.3587 55.1382C79.007 54.9029 78.5936 54.7771 78.1705 54.7766C78.0871 54.7766 78.0045 54.7602 77.9274 54.7283C77.8503 54.6964 77.7803 54.6496 77.7213 54.5906C77.6623 54.5316 77.6156 54.4616 77.5836 54.3845C77.5517 54.3074 77.5353 54.2248 77.5353 54.1414V52.2078C77.5353 52.1244 77.5517 52.0418 77.5836 51.9647C77.6156 51.8877 77.6623 51.8176 77.7213 51.7586C77.7803 51.6996 77.8503 51.6529 77.9274 51.621C78.0045 51.5891 78.0871 51.5726 78.1705 51.5727C78.5936 51.5721 79.007 51.4463 79.3587 51.2111C79.7103 50.9758 79.9844 50.6416 80.1463 50.2508C80.3082 49.8599 80.3507 49.4298 80.2684 49.0148C80.1861 48.5998 79.9828 48.2185 79.684 47.919C79.5649 47.7998 79.4979 47.6382 79.4979 47.4697C79.4979 47.3012 79.5649 47.1397 79.684 47.0205L81.0512 45.6533C81.1703 45.5342 81.3319 45.4673 81.5004 45.4673C81.6689 45.4673 81.8305 45.5342 81.9496 45.6533C82.2491 45.9521 82.6304 46.1555 83.0454 46.2378C83.4604 46.3201 83.8905 46.2776 84.2814 46.1157C84.6723 45.9538 85.0064 45.6797 85.2416 45.328C85.4769 44.9764 85.6027 44.5629 85.6031 44.1399C85.6031 44.0564 85.6196 43.9738 85.6515 43.8967C85.6834 43.8197 85.7302 43.7496 85.7892 43.6907C85.8482 43.6317 85.9183 43.5849 85.9954 43.553C86.0724 43.5211 86.155 43.5047 86.2385 43.5047H88.1721C88.2555 43.5047 88.3381 43.5211 88.4152 43.553C88.4922 43.5849 88.5623 43.6317 88.6213 43.6907C88.6802 43.7497 88.727 43.8197 88.7589 43.8968C88.7908 43.9738 88.8073 44.0564 88.8072 44.1399C88.8077 44.5629 88.9336 44.9764 89.1688 45.328C89.4041 45.6796 89.7383 45.9537 90.1291 46.1156C90.52 46.2775 90.9501 46.32 91.3651 46.2378C91.7801 46.1555 92.1614 45.9521 92.4609 45.6533C92.5801 45.5342 92.7417 45.4673 92.9102 45.4673C93.0786 45.4673 93.2402 45.5342 93.3594 45.6533L94.7266 47.0205C94.8457 47.1397 94.9126 47.3012 94.9126 47.4697C94.9126 47.6382 94.8457 47.7998 94.7266 47.919C94.4278 48.2185 94.2244 48.5998 94.1421 49.0148C94.0599 49.4298 94.1024 49.8599 94.2643 50.2508C94.4262 50.6416 94.7002 50.9758 95.0519 51.2111C95.4035 51.4463 95.817 51.5721 96.24 51.5727C96.4083 51.5727 96.5698 51.6395 96.6888 51.7584C96.8079 51.8774 96.8748 52.0387 96.875 52.207ZM91.252 53.174C91.252 52.3735 91.0146 51.591 90.5698 50.9254C90.1251 50.2598 89.493 49.741 88.7534 49.4347C88.0138 49.1283 87.2 49.0482 86.4149 49.2043C85.6297 49.3605 84.9086 49.746 84.3425 50.312C83.7765 50.8781 83.391 51.5993 83.2348 52.3844C83.0786 53.1695 83.1588 53.9833 83.4651 54.7229C83.7715 55.4625 84.2902 56.0946 84.9558 56.5394C85.6214 56.9841 86.404 57.2215 87.2045 57.2215C88.2779 57.2215 89.3073 56.7951 90.0663 56.0362C90.8254 55.2772 91.2518 54.2474 91.252 53.174ZM12.6186 61.1254C17.0793 57.1426 21.4322 53.1598 21.4322 49.177C21.4322 46.9227 19.3814 45.093 16.8555 45.093C14.851 45.093 13.7244 45.8764 12.7068 47.443C12.6607 47.5146 12.5973 47.5734 12.5225 47.6142C12.4476 47.655 12.3638 47.6763 12.2786 47.6763C12.1934 47.6763 12.1096 47.655 12.0348 47.6142C11.96 47.5734 11.8966 47.5146 11.8504 47.443C10.8328 45.8764 9.70625 45.093 7.70176 45.093C5.17578 45.093 3.125 46.9227 3.125 49.177C3.125 53.1598 7.47793 57.1426 11.9385 61.1254C12.0318 61.2095 12.1529 61.2561 12.2785 61.2561C12.4041 61.2561 12.5253 61.2095 12.6186 61.1254ZM71.7006 83.4496C72.6298 83.8006 73.4865 84.3195 74.2281 84.9803C75.1576 84.2713 76.0542 83.5232 76.9182 82.7359L72.6213 82.7676C72.3176 82.9994 72.0109 83.227 71.7006 83.4496ZM85.1887 65.4127C84.4608 67.5051 83.5468 69.5281 82.4576 71.4572C83.3918 71.5464 84.2881 71.8707 85.0631 72.3998C86.2591 70.2237 87.2487 67.9404 88.0188 65.5797H86.2377C85.8813 65.5799 85.5273 65.5237 85.1887 65.4127ZM14.2283 42.7658C15.7998 37.3862 18.5622 32.4293 22.3106 28.2628C26.059 24.0962 30.6973 20.827 35.8814 18.6975C35.6443 17.7915 35.4951 16.8647 35.4357 15.9301C29.5431 18.2414 24.2818 21.9158 20.0829 26.6523C15.884 31.3889 12.8669 37.0528 11.2789 43.1801C11.6314 43.3691 11.966 43.5897 12.2785 43.8393C12.862 43.3722 13.5216 43.0091 14.2283 42.7658ZM85.1885 40.9363C85.5271 40.8255 85.8812 40.7692 86.2375 40.7695H88.0186C86.18 35.1573 83.1242 30.0205 79.0697 25.7265C75.0151 21.4325 70.0619 18.0873 64.5643 15.9301C64.5049 16.8647 64.3557 17.7915 64.1186 18.6975C69.0029 20.7045 73.4063 23.7242 77.0382 27.5576C80.67 31.391 83.4479 35.9508 85.1885 40.9363ZM14.1697 63.3813C13.7845 63.6579 13.3433 63.8468 12.8773 63.9345C12.4112 64.0223 11.9315 64.0068 11.4721 63.8891C12.2943 66.8502 13.4572 69.706 14.9375 72.3992C15.7123 71.8704 16.6084 71.5462 17.5422 71.4568C16.1028 68.9078 14.9707 66.197 14.1697 63.3813ZM28.3018 83.4508C27.9907 83.2276 27.6833 82.9997 27.3797 82.7672L23.0828 82.7355C23.9467 83.5227 24.8444 84.2714 25.7758 84.9816C26.5168 84.3208 27.373 83.8019 28.3018 83.4508Z" fill="#0098D6"/>
</svg>
