<svg width="100" height="100" viewBox="0 0 100 100" fill="none" xmlns="http://www.w3.org/2000/svg">
<path fill-rule="evenodd" clip-rule="evenodd" d="M46.0396 53.2674C45.9408 53.2765 45.8408 53.281 45.7396 53.281C43.9286 53.281 42.4586 51.8108 42.4586 50C42.4586 48.679 43.2408 47.5394 44.3671 47.0194V34.2453C44.3671 33.4876 44.982 32.8727 45.7396 32.8727C46.497 32.8727 47.1121 33.4876 47.1121 34.2453V47.0194C48.2382 47.5394 49.0206 48.679 49.0206 50C49.0206 50.7059 48.7972 51.36 48.4172 51.8955L51.5131 57.2576C51.695 57.5729 51.7443 57.9475 51.6501 58.2991C51.5559 58.6507 51.3259 58.9504 51.0108 59.1325C50.6955 59.3144 50.3209 59.3636 49.9693 59.2694C49.6178 59.1752 49.318 58.9453 49.1359 58.6302L46.0396 53.2674ZM66.6198 81.5341C60.6694 78.438 52.8263 82.6004 52.8263 89.9855C52.8263 91.5423 51.5676 92.7959 50.0159 92.7959H41.4582C39.9065 92.7959 38.6478 91.5423 38.6478 89.9855C38.6478 81.549 28.4423 77.3233 22.4776 83.2878C21.3808 84.3847 19.6016 84.3847 18.5047 83.2878L12.4492 77.2374C11.3521 76.1406 11.3521 74.3563 12.4492 73.2594C18.4086 67.2998 14.1829 57.0892 5.75155 57.0892C4.19979 57.0892 2.94116 55.8306 2.94116 54.2788V45.7212C2.94116 44.1694 4.19979 42.9108 5.75155 42.9108C14.1829 42.9108 18.4086 32.7002 12.4492 26.7406C11.3521 25.6437 11.3521 23.8645 12.4492 22.7676L18.5047 16.7121C19.6016 15.6153 21.3808 15.6153 22.4776 16.7121C28.4372 22.6716 38.6478 18.4459 38.6478 10.0145C38.6478 8.46273 39.9065 7.2041 41.4582 7.2041H50.0159C51.5676 7.2041 52.8263 8.46273 52.8263 10.0145C52.8263 18.4459 63.0369 22.6716 68.9963 16.7121C70.0931 15.6153 71.8774 15.6153 72.9745 16.7121L79.0249 22.7676C80.1218 23.8645 80.1218 25.6437 79.0249 26.7406C77.2898 28.4757 76.4186 30.5712 76.2631 32.67C73.1465 33.5716 70.3686 35.2749 68.1682 37.5417C63.7737 29.6733 55.3586 24.3341 45.7396 24.3341C31.5992 24.3341 20.071 35.8621 20.071 50.0025C20.071 64.1367 31.5992 75.671 45.7396 75.671C55.1712 75.671 63.4451 70.5349 67.9067 62.9176C70.1671 65.3435 73.0735 67.1594 76.351 68.0896C76.3722 68.2233 76.3963 68.3568 76.4233 68.49H70.6451C68.4812 68.49 66.6198 70.4178 66.6198 72.8774V74.4908C66.6198 75.6688 67.0469 76.7251 67.7296 77.5057C67.0469 78.2865 66.6198 79.3425 66.6198 80.5208V81.5341ZM81.3841 34.6925C90.0353 34.6925 97.0588 41.7163 97.0588 50.3672C97.0588 59.0182 90.0353 66.0419 81.3841 66.0419C72.7331 66.0419 65.7096 59.0182 65.7096 50.3672C65.7096 41.7163 72.7331 34.6925 81.3841 34.6925ZM81.3855 38.1106C74.6167 38.1106 69.1292 43.598 69.1292 50.3668C69.1292 57.1325 74.6165 62.6204 81.3855 62.6204C88.1514 62.6204 93.639 57.1327 93.639 50.3668C93.639 43.5978 88.1512 38.1106 81.3855 38.1106ZM81.3855 40.4635C86.8521 40.4635 91.2861 44.8976 91.2861 50.3668C91.2861 55.8335 86.8521 60.2674 81.3855 60.2674C75.9163 60.2674 71.4821 55.8335 71.4821 50.3668C71.4821 44.8976 75.9163 40.4635 81.3855 40.4635ZM79.9878 44.6678C78.4774 45.1992 77.4341 46.5649 77.4341 48.1057C77.4341 50.0914 79.1604 51.7821 81.3855 51.7821C82.0118 51.7821 82.5892 52.1508 82.5892 52.7108C82.5892 53.2694 82.0118 53.6394 81.3855 53.6394C80.8253 53.6394 80.5488 53.3829 80.1694 53.0245C79.9046 52.7748 79.5515 52.6404 79.1876 52.6509C78.8238 52.6613 78.479 52.8158 78.229 53.0804C77.9793 53.3452 77.845 53.6983 77.8555 54.0622C77.866 54.426 78.0205 54.7708 78.2851 55.0208C78.8735 55.5765 79.3927 55.9696 80.038 56.1867L80.0423 56.3792C80.0509 56.743 80.2036 57.0886 80.4668 57.34C80.73 57.5913 81.0822 57.7279 81.4461 57.7198C81.81 57.7113 82.1556 57.5586 82.407 57.2954C82.6584 57.0322 82.795 56.68 82.7869 56.3161L82.7829 56.1482C84.291 55.6165 85.3343 54.2516 85.3343 52.7108C85.3343 50.7243 83.6074 49.037 81.3855 49.037C80.7572 49.037 80.1792 48.6665 80.1792 48.1057C80.1792 47.5465 80.7576 47.177 81.3855 47.177C81.6223 47.177 81.9649 47.3021 82.2551 47.4557C82.3614 47.5119 82.4759 47.549 82.5249 47.6231C82.7253 47.9269 83.0381 48.1388 83.3946 48.2121C83.7511 48.2853 84.1221 48.2141 84.4261 48.0139C84.7299 47.8135 84.9417 47.5006 85.015 47.1441C85.0883 46.7876 85.017 46.4165 84.8169 46.1125C84.5584 45.7206 84.0992 45.3255 83.538 45.0288C83.2797 44.8935 83.0108 44.7793 82.7341 44.6872L82.7259 44.3527C82.7071 43.5955 82.077 42.9959 81.3198 43.0147C80.5625 43.0335 79.9629 43.6635 79.9816 44.4208L79.9878 44.6678ZM70.6451 86.5251H92.1233C92.88 86.5251 93.4035 87.3072 93.4035 88.1676V89.7808C93.4035 90.6412 92.88 91.4233 92.1233 91.4233H70.6451C69.8884 91.4233 69.3649 90.6412 69.3649 89.7808V88.1676C69.3649 87.3072 69.8884 86.5251 70.6451 86.5251ZM92.1233 83.78H70.6451C69.8884 83.78 69.3649 82.9978 69.3649 82.1376V80.5208C69.3649 79.6604 69.8884 78.8782 70.6451 78.8782H92.1233C92.88 78.8782 93.4035 79.6604 93.4035 80.5208V82.1376C93.4035 82.9978 92.88 83.78 92.1233 83.78ZM92.1233 76.1331H70.6451C69.8884 76.1331 69.3649 75.351 69.3649 74.4908V72.8774C69.3649 72.0172 69.8884 71.2351 70.6451 71.2351H92.1233C92.88 71.2351 93.4035 72.0172 93.4035 72.8774V74.4908C93.4035 75.351 92.88 76.1331 92.1233 76.1331Z" fill="#0098D6"/>
<path fill-rule="evenodd" clip-rule="evenodd" d="M66.6198 81.5341C60.6694 78.438 52.8263 82.6004 52.8263 89.9855C52.8263 91.5423 51.5676 92.7959 50.0159 92.7959H41.4582C39.9065 92.7959 38.6478 91.5423 38.6478 89.9855C38.6478 81.549 28.4423 77.3233 22.4776 83.2878C21.3808 84.3847 19.6016 84.3847 18.5047 83.2878L12.4492 77.2374C11.3521 76.1406 11.3521 74.3563 12.4492 73.2594C18.4086 67.2998 14.1829 57.0892 5.75155 57.0892C4.19979 57.0892 2.94116 55.8306 2.94116 54.2788V45.7212C2.94116 44.1694 4.19979 42.9108 5.75155 42.9108C14.1829 42.9108 18.4086 32.7002 12.4492 26.7406C11.3521 25.6437 11.3521 23.8645 12.4492 22.7676L18.5047 16.7121C19.6016 15.6153 21.3808 15.6153 22.4776 16.7121C28.4372 22.6716 38.6478 18.4459 38.6478 10.0145C38.6478 8.46273 39.9065 7.2041 41.4582 7.2041H50.0159C51.5676 7.2041 52.8263 8.46273 52.8263 10.0145C52.8263 18.4459 63.0369 22.6716 68.9963 16.7121C70.0931 15.6153 71.8774 15.6153 72.9745 16.7121L79.0249 22.7676C80.1218 23.8645 80.1218 25.6437 79.0249 26.7406C77.2898 28.4757 76.4186 30.5712 76.2631 32.67C73.1465 33.5716 70.3686 35.2749 68.1682 37.5417C63.7737 29.6733 55.3586 24.3341 45.7396 24.3341C31.5992 24.3341 20.071 35.8621 20.071 50.0025C20.071 64.1367 31.5992 75.671 45.7396 75.671C55.1712 75.671 63.4451 70.5349 67.9067 62.9176C70.1671 65.3435 73.0735 67.1594 76.351 68.0896C76.3722 68.2233 76.3963 68.3568 76.4233 68.49H70.6451C68.4812 68.49 66.6198 70.4178 66.6198 72.8774V74.4908C66.6198 75.6688 67.0469 76.7251 67.7296 77.5057C67.0469 78.2865 66.6198 79.3425 66.6198 80.5208V81.5341Z" fill="#99D6EF"/>
</svg>
