<svg width="100" height="100" viewBox="0 0 100 100" fill="none" xmlns="http://www.w3.org/2000/svg">
<path fill-rule="evenodd" clip-rule="evenodd" d="M18.184 68.1834C24.0619 78.4576 34.4373 85.1281 45.9115 86.4086V86.409H45.9113V86.4109C45.8622 86.9448 45.8622 87.4821 45.9113 88.016V92.4295C32.0009 91.0979 19.4355 82.9746 12.5834 70.4457C14.6166 70.2699 16.5777 69.4904 18.184 68.183V68.1834ZM84.3394 46.5717C80.5677 44.3941 79.2756 39.5713 81.4531 35.7996C83.6306 32.0279 88.4535 30.7355 92.2252 32.9133C95.9968 35.0908 97.2892 39.9137 95.1115 43.6854C92.934 47.457 88.1111 48.7492 84.3394 46.5717ZM15.6603 53.4281C11.8886 51.2506 7.0658 52.5428 4.88826 56.3145C2.71072 60.0861 4.00291 64.909 7.77458 67.0865C11.5463 69.2641 16.3691 67.9719 18.5467 64.2002C20.7242 60.4285 19.432 55.6057 15.6603 53.4281ZM91.3402 62.1736L93.0812 60.4326C93.7668 59.7471 93.7668 58.6287 93.0812 57.9432L88.4578 53.3197C87.7722 52.634 86.6539 52.634 85.9683 53.3197L84.2273 55.0607C82.3682 53.9291 80.3452 53.0918 78.23 52.5787V50.1145C78.23 49.1449 77.4392 48.3541 76.4697 48.3541H69.9312C68.9617 48.3541 68.1709 49.1449 68.1709 50.1145V52.5779C66.0554 53.0907 64.0321 53.9279 62.1728 55.0598L60.4328 53.3197C59.7472 52.634 58.6289 52.634 57.9431 53.3197L53.3197 57.9432C52.6342 58.6287 52.6342 59.7471 53.3197 60.4326L55.0607 62.1736C53.9291 64.0327 53.0918 66.0557 52.5787 68.1707H50.1144C49.1449 68.1707 48.3541 68.9615 48.3541 69.9311V76.4695C48.3541 77.4391 49.1449 78.2299 50.1144 78.2299H52.5779C53.0908 80.3453 53.928 82.3686 55.0597 84.2279L53.3195 85.9682C52.634 86.6537 52.634 87.7721 53.3195 88.4576L57.9429 93.0811C58.6285 93.7666 59.7468 93.7666 60.4326 93.0811L62.1726 91.341C64.032 92.4728 66.0553 93.3101 68.1707 93.823V96.2863C68.1707 97.2559 68.9615 98.0467 69.931 98.0467H76.4695C77.439 98.0467 78.2298 97.2559 78.2298 96.2863V93.8217C80.3449 93.3087 82.368 92.4716 84.2271 91.34L85.9681 93.0811C86.6537 93.7666 87.772 93.7666 88.4576 93.0811L93.081 88.4576C93.7666 87.7721 93.7666 86.6537 93.081 85.9682L91.341 84.2279C92.4728 82.3686 93.31 80.3453 93.823 78.2299H96.2863C97.2558 78.2299 98.0466 77.4391 98.0466 76.4695V69.9311C98.0466 68.9615 97.2558 68.1707 96.2863 68.1707H93.8216C93.3087 66.0557 92.4718 64.0327 91.3402 62.1736ZM64.2633 64.2633C69.199 59.3275 77.2015 59.3275 82.1375 64.2633C87.0732 69.1992 87.0732 77.2018 82.1375 82.1375C77.2017 87.0732 69.199 87.0732 64.2633 82.1375C59.3273 77.2018 59.3273 69.1992 64.2633 64.2633ZM44.9392 15.7727C46.0708 17.6317 46.9079 19.6547 47.4209 21.7697H49.8855C50.8551 21.7697 51.6459 22.5605 51.6459 23.5301V30.0687C51.6459 31.0383 50.8551 31.8291 49.8855 31.8291H47.4222C46.9093 33.9445 46.072 35.9678 44.9402 37.8271L46.6804 39.5672C47.366 40.2527 47.366 41.3711 46.6804 42.0568L42.057 46.6803C41.3715 47.3658 40.2531 47.3658 39.5674 46.6803L37.8263 44.9393C35.9672 46.0708 33.9442 46.9079 31.8291 47.4209V49.8855C31.8291 50.8551 31.0383 51.6459 30.0687 51.6459H23.5302C22.5607 51.6459 21.7699 50.8551 21.7699 49.8855V47.4223C19.6545 46.9093 17.6312 46.0721 15.7718 44.9402L14.0318 46.6805C13.3463 47.366 12.2279 47.366 11.5424 46.6805L6.91892 42.057C6.23337 41.3715 6.23337 40.2531 6.91892 39.5674L8.65915 37.8271C7.52726 35.9679 6.69006 33.9446 6.17732 31.8291H3.71384C2.74431 31.8291 1.95349 31.0383 1.95349 30.0687V23.5301C1.95349 22.5605 2.74431 21.7697 3.71384 21.7697H6.1781C6.69118 19.6547 7.52842 17.6317 8.66013 15.7727L6.91912 14.0316C6.23357 13.3461 6.23357 12.2277 6.91912 11.5422L11.5426 6.91875C12.2281 6.2332 13.3465 6.2332 14.032 6.91875L15.7722 8.65879C17.6316 7.527 19.6549 6.68982 21.7703 6.17695V3.71348C21.7703 2.74395 22.5611 1.95312 23.5306 1.95312H30.0691C31.0386 1.95312 31.8295 2.74395 31.8295 3.71348V6.17773C33.9446 6.69088 35.9676 7.52812 37.8267 8.65977L39.5677 6.91875C40.2533 6.2332 41.3717 6.2332 42.0574 6.91875L46.6808 11.5422C47.3664 12.2277 47.3664 13.3461 46.6808 14.0316L44.9398 15.7727H44.9392ZM17.8623 17.8623C12.9265 22.798 12.9265 30.8006 17.8623 35.7365C22.7982 40.6723 30.8006 40.6723 35.7365 35.7365C40.6724 30.8008 40.6724 22.7982 35.7365 17.8623C30.8008 12.9266 22.7982 12.9266 17.8623 17.8623ZM87.4158 29.5537C80.5638 17.0254 67.9988 8.90195 54.0886 7.57012V11.9842C54.1377 12.5178 54.1377 13.0547 54.0886 13.5883V13.5908L54.0884 13.5914C65.5621 14.8717 75.9381 21.5432 81.8154 31.817C83.4216 30.5096 85.3826 29.7297 87.4158 29.5537Z" fill="#99D6EF"/>
<path fill-rule="evenodd" clip-rule="evenodd" d="M18.184 68.1834C24.0619 78.4576 34.4373 85.1281 45.9115 86.4086L45.9113 86.4109C45.8622 86.9448 45.8622 87.4821 45.9113 88.016V92.4295C32.001 91.0979 19.4355 82.9746 12.5834 70.4457C14.6166 70.2699 16.5777 69.4908 18.184 68.1834ZM84.3394 46.5717C80.5677 44.3941 79.2756 39.5713 81.4531 35.7996C83.6306 32.0279 88.4535 30.7355 92.2252 32.9133C95.9968 35.0908 97.2892 39.9137 95.1115 43.6854C92.934 47.457 88.1111 48.7492 84.3394 46.5717ZM15.6603 53.4281C11.8886 51.2506 7.0658 52.5428 4.88826 56.3144C2.71072 60.0861 4.00291 64.909 7.77458 67.0865C11.5463 69.2641 16.3691 67.9719 18.5467 64.2002C20.7242 60.4285 19.432 55.6057 15.6603 53.4281ZM87.4158 29.5537C80.5638 17.0254 67.9988 8.90195 54.0886 7.57012V11.9842C54.1377 12.5178 54.1377 13.0547 54.0886 13.5883V13.5908C65.5623 14.8711 75.9381 21.5432 81.8154 31.817C83.4216 30.5096 85.3826 29.7297 87.4158 29.5537Z" fill="#0098D6"/>
</svg>
