<svg width="202" height="16" viewBox="0 0 202 16" fill="none" xmlns="http://www.w3.org/2000/svg">
<path d="M1 7C0.447715 7 -4.82823e-08 7.44772 0 8C4.82823e-08 8.55228 0.447715 9 1 9L1 7ZM201.707 8.70709C202.098 8.31656 202.098 7.6834 201.707 7.29288L195.343 0.928915C194.953 0.538391 194.319 0.538391 193.929 0.928915C193.538 1.31944 193.538 1.9526 193.929 2.34313L199.586 7.99998L193.929 13.6568C193.538 14.0474 193.538 14.6805 193.929 15.0711C194.319 15.4616 194.953 15.4616 195.343 15.0711L201.707 8.70709ZM1 9L3 9L3 7L1 7L1 9ZM7 9L11 9L11 7L7 7L7 9ZM15 9L19 9L19 7L15 7L15 9ZM23 9L27 9L27 7L23 7L23 9ZM31 9L35 9L35 7L31 7L31 9ZM39 9L43 9L43 7L39 7L39 9ZM47 9L51 9L51 7L47 7L47 9ZM55 9L59 8.99999L59 6.99999L55 7L55 9ZM63 8.99999L67 8.99999L67 6.99999L63 6.99999L63 8.99999ZM71 8.99999L75 8.99999L75 6.99999L71 6.99999L71 8.99999ZM79 8.99999L83 8.99999L83 6.99999L79 6.99999L79 8.99999ZM87 8.99999L91 8.99999L91 6.99999L87 6.99999L87 8.99999ZM95 8.99999L99 8.99999L99 6.99999L95 6.99999L95 8.99999ZM103 8.99999L107 8.99999L107 6.99999L103 6.99999L103 8.99999ZM111 8.99999L115 8.99999L115 6.99999L111 6.99999L111 8.99999ZM119 8.99999L123 8.99999L123 6.99999L119 6.99999L119 8.99999ZM127 8.99999L131 8.99999L131 6.99999L127 6.99999L127 8.99999ZM135 8.99999L139 8.99999L139 6.99999L135 6.99999L135 8.99999ZM143 8.99999L147 8.99999L147 6.99999L143 6.99999L143 8.99999ZM151 8.99999L155 8.99999L155 6.99999L151 6.99999L151 8.99999ZM159 8.99999L163 8.99999L163 6.99999L159 6.99999L159 8.99999ZM167 8.99999L171 8.99999L171 6.99999L167 6.99999L167 8.99999ZM175 8.99998L179 8.99998L179 6.99998L175 6.99998L175 8.99998ZM183 8.99998L187 8.99998L187 6.99998L183 6.99998L183 8.99998ZM191 8.99998L195 8.99998L195 6.99998L191 6.99998L191 8.99998ZM199 8.99998L201 8.99998L201 6.99998L199 6.99998L199 8.99998Z" fill="#99D6EF"/>
</svg>
