<svg width="100" height="100" viewBox="0 0 100 100" fill="none" xmlns="http://www.w3.org/2000/svg">
<path d="M61.0909 1.5061C40.4546 1.5061 23.6818 18.294 23.6818 38.9152C23.6818 59.5364 40.4546 76.3091 61.0909 76.3091C81.7121 76.3091 98.4849 59.5516 98.4849 38.9303C98.4849 18.3243 81.7121 1.53641 61.0909 1.5061ZM61.0758 66.5516C45.803 66.5516 33.3636 54.1425 33.3636 38.9C33.3636 23.6425 45.803 11.2334 61.0758 11.2334C76.3182 11.2485 88.7121 23.6728 88.7121 38.9152C88.7121 54.1576 76.3182 66.5516 61.0758 66.5516Z" fill="#99D6EF"/>
<path d="M33.4924 75.6666L37.4545 71.703C33.9424 69.1579 30.8539 66.0746 28.303 62.5666L24.3485 66.5212L22.5303 64.703C21.9545 64.1272 20.9545 64.1272 20.3788 64.703L4.60605 80.4757C0.484834 84.5969 0.484834 91.2939 4.60605 95.4C6.58732 97.3807 9.27418 98.4934 12.0757 98.4934C14.8773 98.4934 17.5642 97.3807 19.5454 95.4L35.3182 79.6272C35.4586 79.4871 35.5701 79.3206 35.6461 79.1373C35.7221 78.954 35.7613 78.7575 35.7613 78.5591C35.7613 78.3606 35.7221 78.1641 35.6461 77.9808C35.5701 77.7976 35.4586 77.6311 35.3182 77.4909L33.4924 75.6666ZM57.5606 33.9909L56 33.0212C55.9697 32.5666 55.8939 32.1272 55.7727 31.6878L56.9242 30.2333C57.1212 29.9909 57.1364 29.6424 56.9697 29.3697L55.8939 27.6727C55.8097 27.5384 55.6854 27.4339 55.5386 27.3741C55.3918 27.3143 55.2299 27.3021 55.0757 27.3394L53.303 27.7636C52.9545 27.4757 52.5757 27.2182 52.1818 26.9757L51.9697 25.1575C51.9522 25.003 51.8876 24.8575 51.7846 24.741C51.6816 24.6244 51.5452 24.5424 51.3939 24.506L49.4394 24.0666C49.2838 24.0373 49.1231 24.0547 48.9774 24.1167C48.8318 24.1788 48.7078 24.2826 48.6212 24.4151L47.6667 25.9606C47.2121 26.006 46.7576 26.0818 46.3182 26.203L44.8788 25.0666C44.7602 24.9655 44.6124 24.9051 44.4569 24.8942C44.3015 24.8833 44.1467 24.9225 44.0151 25.006L42.3182 26.0818C42.0454 26.2485 41.9091 26.5818 41.9848 26.9L42.4091 28.6727C42.106 29.0212 41.8485 29.4 41.6212 29.7939L39.803 30.006C39.4848 30.0363 39.2273 30.2788 39.1515 30.5818L38.7121 32.5363C38.6364 32.8545 38.7727 33.1727 39.0454 33.3545L40.606 34.3091C40.6515 34.7636 40.7273 35.2182 40.8485 35.6575L39.697 37.0969C39.5 37.3394 39.4848 37.6878 39.6515 37.9606L40.7273 39.6575C40.8107 39.7888 40.9325 39.8912 41.0762 39.9509C41.2199 40.0105 41.3784 40.0245 41.5303 39.9909L43.3182 39.5666C43.6667 39.8697 44.0454 40.1272 44.4394 40.3545L44.6364 42.1727C44.6818 42.4909 44.9091 42.7485 45.2273 42.8242L47.1818 43.2636C47.3337 43.2963 47.4919 43.2819 47.6354 43.2224C47.7789 43.1628 47.9008 43.0609 47.9848 42.9303L48.9545 41.3697C49.4091 41.3242 49.8636 41.2485 50.303 41.1272L51.7273 42.2788C51.9848 42.4757 52.3333 42.4909 52.6061 42.3242L54.303 41.2485C54.5757 41.0818 54.697 40.7485 54.6364 40.4454L54.2121 38.6424C54.5 38.2939 54.7727 37.9303 54.9848 37.5363L56.8182 37.3394C57.1364 37.2939 57.3939 37.0666 57.4697 36.7485L57.9091 34.7939C57.9399 34.6405 57.923 34.4813 57.8607 34.3378C57.7984 34.1942 57.6937 34.0732 57.5606 33.9909ZM50.2576 36.7636C48.6515 37.8242 46.3333 37.4 45.197 35.6272C44.1364 33.9 44.5757 31.6878 46.3333 30.5666C48 29.506 50.3485 30.0515 51.3939 31.703C52.4242 33.3091 52.0757 35.6121 50.2576 36.7636ZM81.8182 43.7939L79.5757 42.4151C79.5303 41.7333 79.4242 41.0515 79.2273 40.3848L80.8636 38.3091C81.0757 38.0666 81.0909 37.7182 80.9091 37.4454L79.4545 35.1575C79.3763 35.0211 79.2551 34.9144 79.1098 34.8541C78.9645 34.7938 78.8034 34.7833 78.6515 34.8242L76.0909 35.4151C75.5757 34.9757 75.0151 34.5666 74.4091 34.2333L74.1061 31.6121C74.0851 31.4564 74.0174 31.3108 73.9119 31.1945C73.8063 31.0782 73.668 30.9966 73.5151 30.9606L70.8636 30.3697C70.5606 30.3091 70.2273 30.4303 70.0606 30.703L68.6818 32.9454C67.9848 32.9909 67.303 33.1121 66.6364 33.2939L64.5757 31.6575C64.451 31.5621 64.3003 31.5066 64.1434 31.4985C63.9865 31.4904 63.8309 31.53 63.697 31.6121L61.4091 33.0666C61.1364 33.2485 61 33.5666 61.0757 33.8848L61.6818 36.4303C61.2273 36.9606 60.8182 37.5212 60.4848 38.1272L57.8788 38.4303C57.7222 38.4487 57.5753 38.5156 57.4585 38.6215C57.3417 38.7274 57.2609 38.8671 57.2273 39.0212L56.6364 41.6575C56.5606 41.9757 56.697 42.3091 56.9697 42.4757L59.2121 43.8545C59.2576 44.5515 59.3636 45.2333 59.5606 45.9L57.9242 47.9454C57.7273 48.203 57.7121 48.5515 57.8788 48.8242L59.3333 51.1121C59.5 51.3848 59.8182 51.5212 60.1364 51.4454L62.697 50.8545C63.2273 51.3091 63.7879 51.703 64.3939 52.0363L64.6818 54.6575C64.7273 54.9757 64.9545 55.2333 65.2727 55.3091L67.9242 55.9C67.9697 55.9151 68.0303 55.9151 68.0909 55.9151C68.3485 55.9151 68.5909 55.7788 68.7273 55.5515L70.1212 53.3242C70.803 53.2788 71.4848 53.1575 72.1515 52.9757L74.2121 54.6121C74.4697 54.8091 74.8182 54.8242 75.0909 54.6575L77.3788 53.203C77.5117 53.1212 77.6155 52.9995 77.6753 52.8554C77.7351 52.7112 77.748 52.5519 77.7121 52.4L77.1061 49.8242C77.5606 49.3091 77.9697 48.7333 78.303 48.1424L80.9091 47.8394C81.2273 47.8091 81.5 47.5666 81.5606 47.2485L82.1515 44.6121C82.1887 44.458 82.1766 44.2961 82.1168 44.1492C82.057 44.0024 81.9525 43.8781 81.8182 43.7939ZM72.3333 47.7636C69.5909 49.4303 66.303 48.506 64.7727 46.0666C64.3873 45.4589 64.1254 44.7812 64.002 44.0721C63.8787 43.3631 63.8964 42.6368 64.054 41.9346C64.2116 41.2324 64.5061 40.5681 64.9206 39.9798C65.3351 39.3915 65.8615 38.8907 66.4697 38.506C67.0762 38.1208 67.7528 37.859 68.4606 37.7358C69.1685 37.6125 69.8937 37.6302 70.5947 37.7879C71.2958 37.9456 71.9587 38.24 72.5457 38.6545C73.1326 39.0689 73.632 39.5952 74.0151 40.203C74.7926 41.4292 75.0521 42.9136 74.7369 44.3309C74.4216 45.7482 73.5573 46.9826 72.3333 47.7636Z" fill="#99D6EF"/>
<path d="M33.4924 75.6666L37.4545 71.703C33.9424 69.1579 30.8539 66.0746 28.303 62.5666L24.3485 66.5212L22.5303 64.703C21.9545 64.1272 20.9545 64.1272 20.3788 64.703L4.60605 80.4757C0.484834 84.5969 0.484834 91.2939 4.60605 95.4C6.58731 97.3807 9.27418 98.4934 12.0757 98.4934C14.8773 98.4934 17.5642 97.3807 19.5454 95.4L35.3182 79.6272C35.4586 79.4871 35.5701 79.3206 35.6461 79.1373C35.7221 78.954 35.7613 78.7575 35.7613 78.5591C35.7613 78.3606 35.7221 78.1641 35.6461 77.9808C35.5701 77.7976 35.4586 77.6311 35.3182 77.4909L33.4924 75.6666ZM57.5606 33.9909L56 33.0212C55.9697 32.5666 55.8939 32.1272 55.7727 31.6878L56.9242 30.2333C57.1212 29.9909 57.1363 29.6424 56.9697 29.3697L55.8939 27.6727C55.8097 27.5384 55.6854 27.4339 55.5386 27.3741C55.3918 27.3143 55.2298 27.3021 55.0757 27.3394L53.303 27.7636C52.9545 27.4757 52.5757 27.2182 52.1818 26.9757L51.9697 25.1575C51.9522 25.003 51.8876 24.8575 51.7846 24.741C51.6816 24.6244 51.5452 24.5424 51.3939 24.506L49.4394 24.0666C49.2838 24.0373 49.123 24.0547 48.9774 24.1167C48.8318 24.1788 48.7078 24.2826 48.6212 24.4151L47.6666 25.9606C47.2121 26.006 46.7576 26.0818 46.3182 26.203L44.8788 25.0666C44.7602 24.9655 44.6124 24.9051 44.4569 24.8942C44.3015 24.8833 44.1467 24.9225 44.0151 25.006L42.3182 26.0818C42.0454 26.2485 41.9091 26.5818 41.9848 26.9L42.4091 28.6727C42.106 29.0212 41.8485 29.4 41.6212 29.7939L39.803 30.006C39.4848 30.0363 39.2273 30.2788 39.1515 30.5818L38.7121 32.5363C38.6363 32.8545 38.7727 33.1727 39.0454 33.3545L40.606 34.3091C40.6515 34.7636 40.7273 35.2182 40.8485 35.6575L39.697 37.0969C39.5 37.3394 39.4848 37.6878 39.6515 37.9606L40.7273 39.6575C40.8107 39.7888 40.9325 39.8912 41.0762 39.9509C41.2199 40.0105 41.3784 40.0245 41.5303 39.9909L43.3182 39.5666C43.6666 39.8697 44.0454 40.1272 44.4394 40.3545L44.6363 42.1727C44.6818 42.4909 44.9091 42.7485 45.2273 42.8242L47.1818 43.2636C47.3337 43.2963 47.4919 43.2819 47.6354 43.2224C47.7789 43.1628 47.9008 43.0609 47.9848 42.9303L48.9545 41.3697C49.4091 41.3242 49.8636 41.2485 50.303 41.1272L51.7273 42.2788C51.9848 42.4757 52.3333 42.4909 52.606 42.3242L54.303 41.2485C54.5757 41.0818 54.697 40.7485 54.6364 40.4454L54.2121 38.6424C54.5 38.2939 54.7727 37.9303 54.9848 37.5363L56.8182 37.3394C57.1363 37.2939 57.3939 37.0666 57.4697 36.7485L57.9091 34.7939C57.9399 34.6405 57.923 34.4813 57.8607 34.3378C57.7984 34.1942 57.6937 34.0732 57.5606 33.9909ZM50.2576 36.7636C48.6515 37.8242 46.3333 37.4 45.197 35.6272C44.1363 33.9 44.5757 31.6878 46.3333 30.5666C48 29.506 50.3485 30.0515 51.3939 31.703C52.4242 33.3091 52.0757 35.6121 50.2576 36.7636ZM81.8182 43.7939L79.5757 42.4151C79.5303 41.7333 79.4242 41.0515 79.2273 40.3848L80.8636 38.3091C81.0757 38.0666 81.0909 37.7182 80.9091 37.4454L79.4545 35.1575C79.3763 35.0211 79.2551 34.9144 79.1098 34.8541C78.9645 34.7938 78.8034 34.7833 78.6515 34.8242L76.0909 35.4151C75.5757 34.9757 75.0151 34.5666 74.4091 34.2333L74.106 31.6121C74.0851 31.4564 74.0174 31.3108 73.9118 31.1945C73.8063 31.0782 73.668 30.9966 73.5151 30.9606L70.8636 30.3697C70.5606 30.3091 70.2273 30.4303 70.0606 30.703L68.6818 32.9454C67.9848 32.9909 67.303 33.1121 66.6363 33.2939L64.5757 31.6575C64.451 31.5621 64.3003 31.5066 64.1434 31.4985C63.9865 31.4904 63.8309 31.53 63.697 31.6121L61.4091 33.0666C61.1363 33.2485 61 33.5666 61.0757 33.8848L61.6818 36.4303C61.2273 36.9606 60.8182 37.5212 60.4848 38.1272L57.8788 38.4303C57.7222 38.4487 57.5753 38.5156 57.4585 38.6215C57.3417 38.7274 57.2609 38.8671 57.2273 39.0212L56.6363 41.6575C56.5606 41.9757 56.697 42.3091 56.9697 42.4757L59.2121 43.8545C59.2576 44.5515 59.3636 45.2333 59.5606 45.9L57.9242 47.9454C57.7273 48.203 57.7121 48.5515 57.8788 48.8242L59.3333 51.1121C59.5 51.3848 59.8182 51.5212 60.1363 51.4454L62.697 50.8545C63.2273 51.3091 63.7879 51.703 64.3939 52.0363L64.6818 54.6575C64.7273 54.9757 64.9545 55.2333 65.2727 55.3091L67.9242 55.9C67.9697 55.9151 68.0303 55.9151 68.0909 55.9151C68.3485 55.9151 68.5909 55.7788 68.7273 55.5515L70.1212 53.3242C70.803 53.2788 71.4848 53.1575 72.1515 52.9757L74.2121 54.6121C74.4697 54.8091 74.8182 54.8242 75.0909 54.6575L77.3788 53.203C77.5117 53.1212 77.6154 52.9995 77.6753 52.8554C77.7351 52.7112 77.748 52.5519 77.7121 52.4L77.106 49.8242C77.5606 49.3091 77.9697 48.7333 78.303 48.1424L80.9091 47.8394C81.2273 47.8091 81.5 47.5666 81.5606 47.2485L82.1515 44.6121C82.1887 44.458 82.1766 44.2961 82.1168 44.1492C82.0569 44.0024 81.9525 43.8781 81.8182 43.7939ZM72.3333 47.7636C69.5909 49.4303 66.303 48.506 64.7727 46.0666C64.3873 45.4589 64.1254 44.7812 64.002 44.0721C63.8787 43.3631 63.8964 42.6368 64.054 41.9346C64.2116 41.2324 64.506 40.5681 64.9206 39.9798C65.3351 39.3915 65.8615 38.8907 66.4697 38.506C67.0762 38.1208 67.7527 37.859 68.4606 37.7358C69.1685 37.6125 69.8937 37.6302 70.5947 37.7879C71.2957 37.9456 71.9587 38.24 72.5457 38.6545C73.1326 39.0689 73.632 39.5952 74.0151 40.203C74.7926 41.4292 75.0521 42.9136 74.7368 44.3309C74.4216 45.7482 73.5573 46.9826 72.3333 47.7636Z" fill="#0098D6"/>
</svg>
