<svg width="100" height="100" viewBox="0 0 100 100" fill="none" xmlns="http://www.w3.org/2000/svg">
<path fill-rule="evenodd" clip-rule="evenodd" d="M69.7596 71.1252C70.7046 70.18 71.9088 69.5363 73.2197 69.2755C74.5306 69.0146 75.8894 69.1484 77.1243 69.6599C78.3592 70.1713 79.4147 71.0375 80.1573 72.1488C80.8999 73.2601 81.2962 74.5667 81.2962 75.9034C81.2962 77.24 80.8999 78.5466 80.1573 79.6579C79.4147 80.7692 78.3592 81.6354 77.1243 82.1469C75.8894 82.6583 74.5306 82.7921 73.2197 82.5312C71.9088 82.2704 70.7046 81.6267 69.7596 80.6815C68.4925 79.4142 67.7806 77.6955 67.7806 75.9034C67.7806 74.1113 68.4925 72.3925 69.7596 71.1252ZM90.332 24.8342C89.9694 24.8342 89.6217 24.6902 89.3653 24.4338C89.1089 24.1774 88.9648 23.8296 88.9648 23.467C88.9648 23.1044 89.1089 22.7567 89.3653 22.5003C89.6217 22.2439 89.9694 22.0998 90.332 22.0998H96.1914C96.554 22.0998 96.9018 22.2439 97.1581 22.5003C97.4146 22.7567 97.5586 23.1044 97.5586 23.467C97.5586 23.8296 97.4146 24.1774 97.1581 24.4338C96.9018 24.6902 96.554 24.8342 96.1914 24.8342H90.332ZM83.0918 9.56585C83.002 9.72085 82.8826 9.85665 82.7404 9.96549C82.5981 10.0743 82.4358 10.1541 82.2627 10.2002C82.0897 10.2463 81.9092 10.2579 81.7316 10.2343C81.5541 10.2107 81.3829 10.1523 81.2279 10.0625C81.0729 9.97276 80.9371 9.85334 80.8283 9.71109C80.7194 9.56884 80.6397 9.40654 80.5936 9.23346C80.5474 9.06039 80.5359 8.87992 80.5595 8.70237C80.5831 8.52482 80.6415 8.35366 80.7312 8.19867L83.6609 3.12347C83.8422 2.81044 84.1405 2.58226 84.49 2.48911C84.8396 2.39597 85.2118 2.44549 85.5248 2.62679C85.8378 2.80809 86.066 3.10631 86.1592 3.45586C86.2523 3.8054 86.2028 4.17763 86.0215 4.49066L83.0918 9.56585ZM89.9904 15.516C89.8354 15.6058 89.6643 15.6642 89.4867 15.6878C89.3092 15.7114 89.1287 15.6998 88.9556 15.6537C88.7826 15.6076 88.6203 15.5278 88.478 15.419C88.3358 15.3102 88.2163 15.1744 88.1266 15.0194C88.0368 14.8644 87.9784 14.6932 87.9548 14.5157C87.9312 14.3381 87.9428 14.1576 87.9889 13.9846C88.035 13.8115 88.1148 13.6492 88.2236 13.5069C88.3325 13.3647 88.4682 13.2453 88.6232 13.1555L93.4336 10.3776C93.7466 10.1963 94.1189 10.1467 94.4684 10.2399C94.8179 10.333 95.1162 10.5612 95.2975 10.8743C95.4788 11.1873 95.5283 11.5595 95.4351 11.909C95.342 12.2586 95.1138 12.5568 94.8008 12.7381L89.9895 15.516H89.9904ZM52.9848 46.4756L62.1533 58.7446C62.178 58.7707 62.2076 58.7916 62.2405 58.8061C62.2733 58.8207 62.3088 58.8285 62.3447 58.8292C62.3806 58.83 62.4163 58.8235 62.4497 58.8103C62.4831 58.7971 62.5136 58.7773 62.5393 58.7522L64.5182 56.9565C64.5733 56.9073 64.6071 56.8386 64.6122 56.7649C64.6173 56.6912 64.5933 56.6184 64.5455 56.5621L55.8311 44.8323L52.9848 46.4756ZM56.3672 40.6088C62.9457 37.7832 70.3787 35.7121 77.5781 35.6145L65.0127 13.8528C61.333 20.0227 55.8059 25.4479 50.0826 29.7244L56.3672 40.6088ZM82.7371 18.1284C82.358 17.4676 81.7499 16.9688 81.0278 16.7263C80.3058 16.4837 79.5198 16.5143 78.8187 16.8121L81.9184 22.1809C82.5269 21.7224 82.9462 21.0568 83.0971 20.3101C83.248 19.5633 83.1199 18.7871 82.7371 18.1284ZM66.6314 6.1762C66.0598 6.5135 65.6431 7.06145 65.4708 7.70246C65.2985 8.34348 65.3844 9.02648 65.71 9.60492L81.6031 37.1323C81.7678 37.4179 81.987 37.6683 82.2484 37.8692C82.5098 38.0701 82.8082 38.2175 83.1266 38.303C83.445 38.3886 83.7771 38.4106 84.104 38.3678C84.4309 38.325 84.7461 38.2183 85.0317 38.0536C85.3174 37.889 85.5678 37.6697 85.7687 37.4083C85.9695 37.1469 86.117 36.8485 86.2025 36.5302C86.2881 36.2118 86.3101 35.8797 86.2673 35.5528C86.2245 35.2259 86.1178 34.9107 85.9531 34.625L70.0602 7.09769C69.7224 6.52652 69.1745 6.11027 68.5336 5.93805C67.8928 5.76582 67.21 5.85131 66.6314 6.1762ZM30.7135 18.6578C35.2075 16.0497 40.1994 14.4148 45.3657 13.8593C50.532 13.3038 55.7573 13.8401 60.7031 15.4332C60.1444 16.2025 59.5473 16.9707 58.9119 17.7379C54.5068 16.4634 49.8917 16.081 45.3369 16.613C40.7821 17.1449 36.3793 18.5807 32.3865 20.836C31.9373 20.0323 31.3735 19.2983 30.7129 18.6571L30.7135 18.6578ZM85.0566 40.9571C84.1138 41.1929 83.124 41.1621 82.1977 40.8682C83.5109 45.3018 83.9189 49.9542 83.3974 54.5487C82.8758 59.1432 81.4354 63.5858 79.1617 67.6121C79.9653 68.0614 80.6993 68.6252 81.3406 69.2858C84.6285 63.6377 86.3578 57.2178 86.3518 50.6824C86.3502 47.3978 85.9147 44.1277 85.0566 40.9571ZM67.9197 82.7063C67.259 82.0651 66.6952 81.3311 66.2461 80.5274C58.4973 84.9027 49.3572 86.1134 40.7365 83.9063C40.625 83.9157 40.5121 83.9207 40.3982 83.9207C40.1242 83.9204 39.8545 83.99 39.6149 84.1229C39.3752 84.2559 39.1735 84.4479 39.0287 84.6806C38.884 84.9134 38.8011 85.1792 38.7878 85.4529C38.7746 85.7267 38.8314 85.9993 38.9529 86.245C43.7695 87.6451 48.82 88.0536 53.7989 87.4456C58.7778 86.8376 63.5816 85.2259 67.9197 82.7078V82.7063ZM13.7549 61.0455C12.3549 56.229 11.9465 51.1785 12.5545 46.1996C13.1625 41.2207 14.7742 36.4168 17.2922 32.0787C17.3227 32.11 17.3527 32.1416 17.3836 32.1725C18.0032 32.793 18.7057 33.3247 19.4711 33.7526C15.0965 41.5015 13.8864 50.6415 16.0938 59.2619C16.0844 59.3735 16.0796 59.4863 16.0795 59.6002C16.0798 59.8743 16.0102 60.1439 15.8772 60.3835C15.7442 60.6231 15.5523 60.8249 15.3195 60.9696C15.0868 61.1143 14.821 61.1972 14.5473 61.2105C14.2735 61.2238 14.0009 61.167 13.7553 61.0455H13.7549ZM47.3916 30.5078L54.3426 42.5473L49.0787 45.5866C45.559 47.3387 41.5609 46.6366 39.5094 43.083C38.6 41.4843 38.357 39.5918 38.8329 37.8152C39.3089 36.0386 40.4654 34.5209 42.0522 33.5909L47.3916 30.5078ZM40.3982 81.1854C36.534 81.1854 34.5951 85.867 37.3273 88.5993C37.569 88.841 37.7048 89.1688 37.7048 89.5107C37.7048 89.8525 37.569 90.1804 37.3273 90.4221L34.5521 93.1973C34.3104 93.439 33.9826 93.5748 33.6407 93.5748C33.2989 93.5748 32.971 93.439 32.7293 93.1973C29.9969 90.4651 25.3154 92.4039 25.3154 96.2682C25.3154 96.6101 25.1796 96.938 24.9379 97.1797C24.6961 97.4214 24.3682 97.5573 24.0264 97.5573H20.1021C19.7603 97.5573 19.4324 97.4214 19.1906 97.1797C18.9489 96.938 18.8131 96.6101 18.8131 96.2682C18.8131 92.3991 14.135 90.4616 11.3994 93.1973C11.2797 93.317 11.1376 93.412 10.9812 93.4767C10.8248 93.5415 10.6572 93.5749 10.4879 93.5749C10.3186 93.5749 10.151 93.5415 9.99458 93.4767C9.83818 93.412 9.69607 93.317 9.57637 93.1973L6.80117 90.4221C6.55947 90.1804 6.42369 89.8525 6.42369 89.5107C6.42369 89.1688 6.55947 88.841 6.80117 88.5993C9.53359 85.867 7.59473 81.1854 3.73047 81.1854C3.38859 81.1854 3.06071 81.0496 2.81896 80.8078C2.57722 80.5661 2.44141 80.2382 2.44141 79.8963V75.9721C2.44141 75.6302 2.57722 75.3023 2.81896 75.0606C3.06071 74.8189 3.38859 74.683 3.73047 74.683C7.59473 74.683 9.53359 70.0016 6.80117 67.2694C6.68147 67.1497 6.58651 67.0076 6.52172 66.8512C6.45694 66.6948 6.4236 66.5271 6.4236 66.3578C6.4236 66.1886 6.45694 66.0209 6.52172 65.8645C6.58651 65.7081 6.68147 65.566 6.80117 65.4463L9.57637 62.6711C9.69607 62.5514 9.83818 62.4565 9.99458 62.3917C10.151 62.3269 10.3186 62.2936 10.4879 62.2936C10.6572 62.2936 10.8248 62.3269 10.9812 62.3917C11.1376 62.4565 11.2797 62.5514 11.3994 62.6711C14.1316 65.4035 18.8131 63.4647 18.8131 59.6002C18.8131 59.2584 18.9489 58.9305 19.1906 58.6887C19.4324 58.447 19.7603 58.3112 20.1021 58.3112H24.0266C24.3684 58.3112 24.6963 58.447 24.9381 58.6887C25.1798 58.9305 25.3156 59.2584 25.3156 59.6002C25.3156 63.4647 29.9971 65.4035 32.7295 62.6711C32.9712 62.4294 33.2991 62.2936 33.6409 62.2936C33.9828 62.2936 34.3106 62.4294 34.5523 62.6711L37.3275 65.4463C37.4472 65.566 37.5422 65.7081 37.607 65.8645C37.6718 66.0209 37.7051 66.1886 37.7051 66.3578C37.7051 66.5271 37.6718 66.6948 37.607 66.8512C37.5422 67.0076 37.4472 67.1497 37.3275 67.2694C34.5953 70.0016 36.5342 74.683 40.3984 74.683C40.5677 74.683 40.7353 74.7164 40.8917 74.7812C41.0481 74.8459 41.1902 74.9409 41.3099 75.0606C41.4296 75.1803 41.5246 75.3224 41.5894 75.4788C41.6542 75.6352 41.6875 75.8028 41.6875 75.9721V79.8963C41.6875 80.0656 41.6542 80.2332 41.5894 80.3896C41.5246 80.546 41.4296 80.6881 41.3099 80.8078C41.1902 80.9275 41.0481 81.0225 40.8917 81.0873C40.7353 81.152 40.5675 81.1854 40.3982 81.1854ZM22.0643 68.5059C20.1995 68.5059 18.3766 69.0589 16.8262 70.0948C15.2757 71.1309 14.0672 72.6033 13.3536 74.3261C12.64 76.049 12.4533 77.9447 12.8171 79.7736C13.1809 81.6025 14.0789 83.2825 15.3974 84.601C16.716 85.9196 18.396 86.8176 20.2249 87.1814C22.0538 87.5452 23.9495 87.3585 25.6723 86.6448C27.3951 85.9312 28.8676 84.7228 29.9036 83.1723C30.9396 81.6218 31.4926 79.799 31.4926 77.9342C31.4926 75.4337 30.4992 73.0355 28.7311 71.2674C26.9629 69.4992 24.5648 68.5059 22.0643 68.5059ZM28.8732 30.2391C29.8184 29.294 30.4622 28.0899 30.723 26.779C30.9838 25.4681 30.8501 24.1093 30.3386 22.8744C29.8272 21.6395 28.961 20.584 27.8497 19.8414C26.7383 19.0988 25.4317 18.7024 24.0951 18.7024C22.7585 18.7024 21.4519 19.0988 20.3406 19.8414C19.2292 20.584 18.3631 21.6395 17.8516 22.8744C17.3402 24.1093 17.2064 25.4681 17.4672 26.779C17.7281 28.0899 18.3718 29.294 19.317 30.2391C20.5843 31.5062 22.303 32.218 24.0951 32.218C25.8872 32.218 27.6059 31.5062 28.8732 30.2391Z" fill="#99D6EF"/>
<path fill-rule="evenodd" clip-rule="evenodd" d="M73.2197 69.2755C71.9088 69.5363 70.7046 70.18 69.7596 71.1252C68.4925 72.3925 67.7806 74.1113 67.7806 75.9034C67.7806 77.6954 68.4925 79.4142 69.7596 80.6815C70.7046 81.6267 71.9088 82.2704 73.2197 82.5312C74.5306 82.7921 75.8894 82.6583 77.1243 82.1469C78.3592 81.6354 79.4147 80.7692 80.1573 79.6579C80.8999 78.5466 81.2962 77.24 81.2962 75.9034C81.2962 74.5667 80.8999 73.2601 80.1573 72.1488C79.4147 71.0375 78.3592 70.1713 77.1243 69.6599C75.8894 69.1484 74.5306 69.0146 73.2197 69.2755ZM89.3653 24.4338C89.6217 24.6902 89.9694 24.8342 90.332 24.8342H96.1914C96.554 24.8342 96.9017 24.6902 97.1581 24.4338C97.4146 24.1774 97.5586 23.8296 97.5586 23.467C97.5586 23.1044 97.4146 22.7567 97.1581 22.5003C96.9017 22.2439 96.554 22.0998 96.1914 22.0998H90.332C89.9694 22.0998 89.6217 22.2439 89.3653 22.5003C89.1089 22.7567 88.9648 23.1044 88.9648 23.467C88.9648 23.8296 89.1089 24.1774 89.3653 24.4338ZM82.7404 9.96549C82.8826 9.85665 83.002 9.72085 83.0918 9.56585L86.0215 4.49066C86.2028 4.17763 86.2523 3.8054 86.1592 3.45586C86.066 3.10632 85.8378 2.80809 85.5248 2.62679C85.2118 2.44549 84.8395 2.39597 84.49 2.48911C84.1405 2.58226 83.8422 2.81044 83.6609 3.12347L80.7312 8.19867C80.6415 8.35366 80.5831 8.52482 80.5595 8.70237C80.5359 8.87992 80.5474 9.06039 80.5936 9.23346C80.6397 9.40654 80.7195 9.56884 80.8283 9.71109C80.9371 9.85334 81.0729 9.97276 81.2279 10.0625C81.3829 10.1523 81.5541 10.2107 81.7316 10.2343C81.9092 10.2579 82.0897 10.2463 82.2627 10.2002C82.4358 10.1541 82.5981 10.0743 82.7404 9.96549ZM89.4867 15.6878C89.6643 15.6642 89.8354 15.6058 89.9904 15.516L94.8008 12.7381C95.1138 12.5568 95.342 12.2586 95.4351 11.909C95.5283 11.5595 95.4788 11.1873 95.2975 10.8743C95.1162 10.5612 94.8179 10.333 94.4684 10.2399C94.1189 10.1467 93.7466 10.1963 93.4336 10.3776L88.6232 13.1555C88.4682 13.2453 88.3325 13.3647 88.2236 13.5069C88.1148 13.6492 88.035 13.8115 87.9889 13.9846C87.9428 14.1576 87.9312 14.3381 87.9548 14.5157C87.9784 14.6932 88.0368 14.8644 88.1266 15.0194C88.2163 15.1744 88.3358 15.3102 88.478 15.419C88.6203 15.5278 88.7826 15.6076 88.9556 15.6537C89.1287 15.6998 89.3092 15.7114 89.4867 15.6878ZM81.0278 16.7263C81.7499 16.9688 82.358 17.4676 82.7371 18.1284C83.1199 18.7871 83.248 19.5633 83.0971 20.3101C82.9462 21.0568 82.5269 21.7224 81.9184 22.1809L78.8187 16.8121C79.5198 16.5143 80.3058 16.4837 81.0278 16.7263ZM30.7135 18.6578C31.3741 19.2991 31.9373 20.0323 32.3865 20.836C36.3793 18.5807 40.7821 17.1449 45.3369 16.613C49.8917 16.081 54.5068 16.4634 58.9119 17.7379C59.5473 16.9707 60.1444 16.2025 60.7031 15.4332C55.7573 13.8401 50.532 13.3038 45.3657 13.8593C40.1994 14.4148 35.2075 16.0497 30.7135 18.6578ZM82.1977 40.8682C83.124 41.1621 84.1138 41.1929 85.0566 40.9571C85.9147 44.1277 86.3502 47.3978 86.3518 50.6824C86.3578 57.2178 84.6285 63.6377 81.3406 69.2858C80.6993 68.6252 79.9653 68.0614 79.1617 67.6121C81.4354 63.5858 82.8758 59.1432 83.3974 54.5487C83.9189 49.9542 83.5109 45.3018 82.1977 40.8682ZM66.2461 80.5274C66.6953 81.3311 67.259 82.0651 67.9197 82.7063V82.7078C63.5816 85.2259 58.7778 86.8376 53.7989 87.4456C48.82 88.0536 43.7695 87.6451 38.9529 86.245C38.8314 85.9993 38.7746 85.7267 38.7878 85.4529C38.8011 85.1792 38.884 84.9134 39.0287 84.6806C39.1735 84.4479 39.3752 84.2559 39.6149 84.1229C39.8545 83.99 40.1242 83.9204 40.3982 83.9207C40.5121 83.9207 40.625 83.9157 40.7365 83.9063C49.3572 86.1134 58.4973 84.9027 66.2461 80.5274ZM12.5545 46.1996C11.9465 51.1785 12.3549 56.229 13.7549 61.0455C14.0005 61.167 14.2735 61.2238 14.5473 61.2105C14.821 61.1972 15.0868 61.1143 15.3195 60.9696C15.5523 60.8248 15.7442 60.6231 15.8772 60.3835C16.0102 60.1439 16.0798 59.8743 16.0795 59.6002C16.0796 59.4863 16.0844 59.3735 16.0938 59.2619C13.8864 50.6415 15.0965 41.5015 19.4711 33.7526C18.7057 33.3247 18.0032 32.793 17.3836 32.1725C17.363 32.1519 17.3428 32.131 17.3226 32.1101L17.2922 32.0787C14.7742 36.4168 13.1625 41.2207 12.5545 46.1996ZM30.723 26.779C30.4622 28.0899 29.8184 29.294 28.8732 30.2391C27.6059 31.5062 25.8872 32.218 24.0951 32.218C22.303 32.218 20.5843 31.5062 19.317 30.2391C18.3718 29.294 17.7281 28.0899 17.4672 26.779C17.2064 25.4681 17.3402 24.1093 17.8516 22.8744C18.3631 21.6395 19.2292 20.584 20.3406 19.8414C21.4519 19.0988 22.7585 18.7024 24.0951 18.7024C25.4317 18.7024 26.7383 19.0988 27.8497 19.8414C28.961 20.584 29.8272 21.6395 30.3386 22.8744C30.8501 24.1093 30.9838 25.4681 30.723 26.779Z" fill="#0098D6"/>
</svg>
