<svg width="100" height="100" viewBox="0 0 100 100" fill="none" xmlns="http://www.w3.org/2000/svg">
<g clip-path="url(#clip0_147_2659)">
<path fill-rule="evenodd" clip-rule="evenodd" d="M17.3075 98.9583V96.985C17.3075 95.8915 18.1939 95.0044 19.2879 95.0044C25.2253 95.0044 28.2045 87.8113 24.0065 83.6132C23.2331 82.8398 23.2331 81.5855 24.0065 80.8122L28.2704 76.5483C29.0437 75.7749 30.298 75.7749 31.0714 76.5483C35.2694 80.7464 42.4626 77.7675 42.4626 71.83C42.4626 70.7358 43.3495 69.8496 44.443 69.8496H50.473C51.5665 69.8496 52.4534 70.736 52.4534 71.83C52.4534 77.7675 59.6465 80.7465 63.8446 76.5483C64.618 75.7749 65.8726 75.7749 66.6456 76.5483L70.9095 80.8122C71.6827 81.5855 71.6827 82.8398 70.9095 83.6132C66.7114 87.8113 69.6903 95.0044 75.6278 95.0044C76.7219 95.0044 77.6082 95.8913 77.6082 96.985V98.9583C77.6082 99.5321 77.1403 100 76.5665 100H62.9511C62.6867 100 62.4321 99.8999 62.2391 99.7192C62.0461 99.5386 61.9291 99.2912 61.912 99.0273C61.4116 91.4802 55.1313 85.5134 47.4575 85.5134C39.7837 85.5134 33.5034 91.4802 33.003 99.0273C32.9859 99.2912 32.8689 99.5386 32.6759 99.7192C32.4828 99.8999 32.2282 100 31.9638 100H18.3485C17.7753 100 17.3075 99.532 17.3075 98.9583ZM55.2415 98.801C54.6641 95.0211 51.3992 92.1256 47.458 92.1256C43.5168 92.1256 40.2517 95.0213 39.6745 98.801C39.6511 98.9495 39.6602 99.1012 39.7013 99.2458C39.7423 99.3904 39.8143 99.5243 39.9122 99.6383C40.0101 99.7523 40.1316 99.8437 40.2683 99.9062C40.4051 99.9686 40.5537 100.001 40.704 100H54.2117C54.362 100.001 54.5106 99.9687 54.6474 99.9062C54.7841 99.8438 54.9056 99.7524 55.0036 99.6384C55.1015 99.5244 55.1735 99.3904 55.2146 99.2458C55.2557 99.1013 55.2649 98.9495 55.2415 98.801Z" fill="#99D6EF"/>
<path d="M45.2555 66.9327L29.522 44.8443C29.0414 45.5495 28.4957 46.2081 27.8921 46.8114C25.24 49.4635 21.7646 50.7914 18.288 50.7953L28.5121 73.1905C30.1173 72.8015 31.8815 73.2332 33.1339 74.4857C35.5007 76.8521 39.5462 75.1766 39.5462 71.8297C39.5462 69.1261 41.7397 66.9325 44.4433 66.9325L45.2555 66.9327Z" fill="#99D6EF"/>
<path d="M31.3618 33.4806L41.6792 20.9815C39.9947 20.3666 38.4655 19.39 37.1992 18.1204C35.8031 16.7243 34.8132 15.0762 34.2271 13.3227L21.3618 23.9425C23.7551 24.4979 26.0272 25.7073 27.8921 27.5721C29.5947 29.2746 30.751 31.3167 31.3618 33.4806Z" fill="#99D6EF"/>
<path d="M51.5845 20.3498L62.4894 29.351C62.9393 28.1064 63.6586 26.9764 64.5957 26.0418C65.5303 25.1049 66.6602 24.3858 67.9048 23.9359L57.979 11.911C57.509 14.1865 56.3924 16.3549 54.6267 18.1203C53.7331 19.0152 52.707 19.7672 51.5845 20.3498Z" fill="#99D6EF"/>
<path fill-rule="evenodd" clip-rule="evenodd" d="M85.5752 33.3582L79.7344 34.6561C80.2461 32.6374 80.0505 30.4762 79.1477 28.5665L88.3647 27.601C88.6216 27.5734 88.8795 27.6425 89.0882 27.7949C89.2968 27.9473 89.4411 28.172 89.4929 28.4251L92.4151 42.5022L90.7127 44.2045L85.5752 33.3582ZM25.8297 29.6342C21.6559 25.4604 14.8889 25.4604 10.715 29.6342C6.54118 33.808 6.54118 40.575 10.715 44.749C14.8888 48.9229 21.6559 48.9229 25.8297 44.749C30.0035 40.5752 30.0035 33.808 25.8297 29.6342ZM50.0416 5.27787C47.7733 3.00954 44.0528 3.00971 41.7843 5.27787C39.5161 7.5462 39.516 11.2668 41.7843 13.5352C44.0526 15.8033 47.7733 15.8035 50.0416 13.5352C52.3099 11.2668 52.3097 7.5462 50.0416 5.27787ZM43.8464 11.4731C42.7114 10.3381 42.7114 8.47496 43.8464 7.33996C44.9816 6.20495 46.8445 6.20478 47.9795 7.33996C49.1145 8.47496 49.1145 10.3381 47.9795 11.4731C46.8445 12.6081 44.9814 12.6081 43.8464 11.4731ZM13.7219 41.7424C11.2218 39.2422 11.2218 35.1413 13.7219 32.6411C16.2219 30.1412 20.3228 30.1414 22.8228 32.6413C25.3229 35.1411 25.3229 39.2422 22.8228 41.7423C20.323 44.2425 16.2221 44.2425 13.7219 41.7424ZM15.7839 39.68C14.417 38.3134 14.4172 36.0701 15.7839 34.7032C17.1507 33.3366 19.394 33.3366 20.7609 34.7032C22.1277 36.0701 22.1277 38.3133 20.7608 39.68C19.394 41.0469 17.1508 41.0466 15.7839 39.68ZM75.3054 28.1043C72.9173 25.7163 69.0458 25.7163 66.6578 28.1043C64.2699 30.4923 64.2699 34.3641 66.6578 36.7519C69.0456 39.1399 72.9174 39.1399 75.3054 36.7519C77.6934 34.3641 77.6934 30.4923 75.3054 28.1043ZM69.6282 31.8704C69.7033 31.6929 69.8129 31.532 69.9506 31.3971C70.225 31.1281 70.5945 30.9783 70.9787 30.9802C71.363 30.9822 71.731 31.1356 72.0027 31.4073C72.2744 31.679 72.428 32.047 72.43 32.4312C72.432 32.8155 72.2822 33.185 72.0133 33.4595C71.8784 33.5972 71.7175 33.7068 71.54 33.7819C71.3624 33.8571 71.1718 33.8963 70.979 33.8973C70.7862 33.8983 70.5951 33.8611 70.4168 33.7878C70.2385 33.7144 70.0765 33.6065 69.9402 33.4702C69.8038 33.3339 69.6959 33.1719 69.6225 32.9936C69.5492 32.8153 69.5119 32.6243 69.5129 32.4315C69.5139 32.2387 69.553 32.048 69.6282 31.8704ZM39.2616 16.058C35.5881 12.3845 35.5881 6.42857 39.2616 2.75503C42.9352 -0.918344 48.8909 -0.918344 52.5643 2.75503C56.2378 6.42857 56.2378 12.3845 52.5643 16.058C48.891 19.7314 42.9352 19.7314 39.2616 16.058ZM71.912 47.0215L73.2099 41.1807C71.1909 41.6925 69.0299 41.4969 67.1204 40.5941L66.1548 49.811C66.1271 50.0679 66.1963 50.3259 66.3487 50.5345C66.5011 50.7432 66.7258 50.8875 66.9789 50.9393L81.0561 53.8614L82.7583 52.1592L71.912 47.0215Z" fill="#0098D6"/>
</g>
<defs>
<clipPath id="clip0_147_2659">
<rect width="100" height="100" fill="white"/>
</clipPath>
</defs>
</svg>
