<svg width="100" height="100" viewBox="0 0 100 100" fill="none" xmlns="http://www.w3.org/2000/svg">
<g clip-path="url(#clip0_363_569)">
<path d="M56.2069 74.4273C56.684 84.2287 50.4809 91.4525 42.5783 93.5699L42.0168 93.7203L38.8686 82.0713L39.0453 82.032C45.3699 80.6291 51.1928 78.0977 56.2069 74.4273ZM94.2582 24.6855C93.6421 21.597 92.4247 18.6597 90.6754 16.0408L94.0463 12.6697L87.3305 5.95371L83.9592 9.32481C81.3403 7.57546 78.403 6.3581 75.3145 5.74199V0.976562H65.8168V5.7418C62.7283 6.35794 59.7911 7.57537 57.1723 9.32481L53.8012 5.95371L47.0852 12.6695L50.4565 16.0408C48.7072 18.6597 47.4899 21.5969 46.8737 24.6854H42.108V30.4734C46.5311 28.4746 51.2371 27.2127 56.0479 26.5596C57.386 19.7629 63.3768 14.6359 70.5658 14.6359C78.7385 14.6359 85.3637 21.2611 85.3637 29.434C85.3637 36.623 80.2369 42.6139 73.4401 43.952C72.7869 48.7627 71.5248 53.4688 69.5262 57.8918H75.3145V53.1264C78.403 52.5103 81.3403 51.2929 83.9592 49.5436L87.3305 52.9148L94.0465 46.199L90.6752 42.8277C92.4245 40.2089 93.642 37.2717 94.2582 34.1832H99.0235V24.6855H94.2582ZM50.4723 30.8273L69.1725 49.5275C65.1418 64.9193 54.1252 75.4861 38.3686 78.9811L21.0188 61.6313C24.5137 45.8748 35.0803 34.858 50.4723 30.8273ZM51.2008 41.3734C47.0694 41.3734 43.7203 44.7227 43.7203 48.8541C43.7203 52.9855 47.0694 56.3348 51.2008 56.3348C55.3322 56.3348 58.6815 52.9855 58.6815 48.8541C58.6815 44.7227 55.3322 41.3734 51.2008 41.3734ZM13.1352 75.7893C13.2803 75.6442 13.3954 75.472 13.4739 75.2824C13.5524 75.0929 13.5928 74.8897 13.5928 74.6846C13.5928 74.4794 13.5524 74.2763 13.4739 74.0867C13.3954 73.8972 13.2803 73.7249 13.1352 73.5799C12.9901 73.4348 12.8179 73.3197 12.6284 73.2412C12.4388 73.1627 12.2357 73.1223 12.0305 73.1223C11.8253 73.1223 11.6222 73.1627 11.4326 73.2412C11.2431 73.3197 11.0709 73.4348 10.9258 73.5799L1.4342 83.0713C1.28912 83.2164 1.17402 83.3886 1.0955 83.5781C1.01698 83.7677 0.976562 83.9708 0.976562 84.176C0.976563 84.3811 1.01698 84.5843 1.0955 84.7738C1.17402 84.9634 1.28912 85.1356 1.4342 85.2807C1.57926 85.4258 1.75148 85.5408 1.94103 85.6194C2.13057 85.6979 2.33373 85.7383 2.53889 85.7383C2.74406 85.7383 2.94721 85.6979 3.13676 85.6194C3.3263 85.5408 3.49852 85.4258 3.64358 85.2807L13.1352 75.7893ZM17.968 60.9547C19.368 54.643 21.8918 48.8309 25.5498 43.8238C15.777 43.3731 8.57659 49.5674 6.4633 57.4549L6.31272 58.0162L17.9239 61.1543L17.968 60.9547ZM19.7778 80.2223C19.6327 80.0772 19.4605 79.9621 19.2709 79.8836C19.0814 79.805 18.8782 79.7646 18.6731 79.7646C18.4679 79.7646 18.2647 79.805 18.0752 79.8836C17.8857 79.9621 17.7134 80.0772 17.5684 80.2223L3.29241 94.4981C3.14732 94.6431 3.03223 94.8153 2.9537 95.0049C2.87518 95.1944 2.83477 95.3976 2.83477 95.6027C2.83477 95.8079 2.87518 96.0111 2.9537 96.2006C3.03223 96.3901 3.14732 96.5624 3.29241 96.7074C3.43747 96.8525 3.60968 96.9676 3.79923 97.0461C3.98877 97.1247 4.19193 97.1651 4.39709 97.1651C4.60226 97.1651 4.80541 97.1247 4.99496 97.0461C5.1845 96.9676 5.35672 96.8525 5.50178 96.7074L19.7776 82.4316C20.0705 82.1387 20.2351 81.7413 20.2351 81.327C20.2352 80.9127 20.0707 80.5153 19.7778 80.2223ZM18.1397 69.4697C18.0714 69.6143 18.0498 69.7767 18.0781 69.9341C18.1063 70.0915 18.183 70.2362 18.2973 70.3481L29.6852 81.7359C29.9207 81.9715 30.2608 82.0324 30.5635 81.8936L34.8803 79.9121L20.1211 65.1529L18.1397 69.4697ZM24.2106 86.8648L14.7192 96.3563C14.5741 96.5013 14.459 96.6735 14.3805 96.8631C14.3019 97.0526 14.2615 97.2558 14.2615 97.4609C14.2615 97.6661 14.3019 97.8693 14.3805 98.0588C14.459 98.2484 14.5741 98.4206 14.7192 98.5656C14.8642 98.7107 15.0364 98.8258 15.226 98.9043C15.4155 98.9829 15.6187 99.0233 15.8239 99.0233C16.029 99.0233 16.2322 98.9829 16.4217 98.9043C16.6113 98.8258 16.7835 98.7107 16.9285 98.5656L26.4199 89.0742C26.565 88.9292 26.6801 88.7569 26.7586 88.5674C26.8372 88.3779 26.8776 88.1747 26.8776 87.9695C26.8776 87.7644 26.8372 87.5612 26.7586 87.3717C26.6801 87.1821 26.565 87.0099 26.4199 86.8648C26.2749 86.7198 26.1027 86.6047 25.9131 86.5262C25.7236 86.4476 25.5204 86.4072 25.3153 86.4072C25.1101 86.4072 24.9069 86.4476 24.7174 86.5262C24.5278 86.6047 24.3556 86.7198 24.2106 86.8648ZM70.5658 29.4342C64.6621 28.8803 59.1485 29.1029 54.0916 30.0279L69.9721 45.9084C70.8971 40.8514 71.1197 35.3379 70.5658 29.4342Z" fill="#99D6EF"/>
<path fill-rule="evenodd" clip-rule="evenodd" d="M90.6754 16.0408C92.4247 18.6597 93.6421 21.597 94.2582 24.6855H99.0235V34.1832H94.2582C93.642 37.2717 92.4245 40.2089 90.6752 42.8277L94.0465 46.199L87.3305 52.9149L83.9592 49.5436C81.3403 51.2929 78.403 52.5103 75.3145 53.1264V57.8918H69.5262C71.5248 53.4688 72.7869 48.7627 73.4401 43.952C80.2369 42.6139 85.3637 36.623 85.3637 29.434C85.3637 21.2611 78.7385 14.6359 70.5658 14.6359C63.3768 14.6359 57.386 19.7629 56.0479 26.5596C51.2371 27.2127 46.5311 28.4746 42.108 30.4734V24.6854H46.8737C47.4899 21.5969 48.7072 18.6597 50.4565 16.0408L47.0852 12.6695L53.8012 5.95371L57.1723 9.32481C59.7911 7.57537 62.7283 6.35794 65.8168 5.7418V0.976562H75.3145V5.74199C78.403 6.3581 81.3403 7.57546 83.9592 9.32481L87.3305 5.95371L94.0463 12.6697L90.6754 16.0408ZM13.4739 75.2824C13.3954 75.472 13.2803 75.6442 13.1352 75.7893L3.64358 85.2807C3.49852 85.4258 3.3263 85.5409 3.13676 85.6194C2.94721 85.6979 2.74406 85.7383 2.53889 85.7383C2.33373 85.7383 2.13057 85.6979 1.94103 85.6194C1.75148 85.5409 1.57926 85.4258 1.4342 85.2807C1.28912 85.1356 1.17402 84.9634 1.0955 84.7739C1.01698 84.5843 0.976563 84.3811 0.976562 84.176C0.976562 83.9708 1.01698 83.7677 1.0955 83.5781C1.17402 83.3886 1.28912 83.2164 1.4342 83.0713L10.9258 73.5799C11.0709 73.4348 11.2431 73.3197 11.4326 73.2412C11.6222 73.1627 11.8253 73.1223 12.0305 73.1223C12.2357 73.1223 12.4388 73.1627 12.6284 73.2412C12.8179 73.3197 12.9901 73.4348 13.1352 73.5799C13.2803 73.7249 13.3954 73.8972 13.4739 74.0867C13.5524 74.2763 13.5928 74.4794 13.5928 74.6846C13.5928 74.8897 13.5524 75.0929 13.4739 75.2824ZM19.2709 79.8836C19.4605 79.9621 19.6327 80.0772 19.7778 80.2223C20.0707 80.5153 20.2352 80.9127 20.2351 81.327C20.2351 81.7413 20.0705 82.1387 19.7776 82.4317L5.50178 96.7074C5.35672 96.8525 5.1845 96.9676 4.99496 97.0461C4.80541 97.1247 4.60226 97.1651 4.39709 97.1651C4.19193 97.1651 3.98877 97.1247 3.79923 97.0461C3.60968 96.9676 3.43747 96.8525 3.29241 96.7074C3.14732 96.5624 3.03223 96.3902 2.9537 96.2006C2.87518 96.0111 2.83477 95.8079 2.83477 95.6027C2.83477 95.3976 2.87518 95.1944 2.9537 95.0049C3.03223 94.8153 3.14732 94.6431 3.29241 94.4981L17.5684 80.2223C17.7134 80.0772 17.8857 79.9621 18.0752 79.8836C18.2647 79.805 18.4679 79.7646 18.6731 79.7646C18.8782 79.7646 19.0814 79.805 19.2709 79.8836ZM14.7192 96.3563L24.2106 86.8648C24.3556 86.7198 24.5278 86.6047 24.7174 86.5262C24.9069 86.4476 25.1101 86.4072 25.3153 86.4072C25.5204 86.4072 25.7236 86.4476 25.9131 86.5262C26.1027 86.6047 26.2749 86.7198 26.4199 86.8648C26.565 87.0099 26.6801 87.1821 26.7586 87.3717C26.8372 87.5612 26.8776 87.7644 26.8776 87.9695C26.8776 88.1747 26.8372 88.3779 26.7586 88.5674C26.6801 88.7569 26.565 88.9292 26.4199 89.0742L16.9285 98.5656C16.7835 98.7107 16.6113 98.8258 16.4217 98.9043C16.2322 98.9829 16.029 99.0233 15.8239 99.0233C15.6187 99.0233 15.4155 98.9829 15.226 98.9043C15.0364 98.8258 14.8642 98.7107 14.7192 98.5656C14.5741 98.4206 14.459 98.2484 14.3805 98.0588C14.3019 97.8693 14.2615 97.6661 14.2615 97.4609C14.2615 97.2558 14.3019 97.0526 14.3805 96.8631C14.459 96.6735 14.5741 96.5013 14.7192 96.3563Z" fill="#0098D6"/>
</g>
<defs>
<clipPath id="clip0_363_569">
<rect width="100" height="100" fill="white"/>
</clipPath>
</defs>
</svg>
