<svg width="100" height="100" viewBox="0 0 100 100" fill="none" xmlns="http://www.w3.org/2000/svg">
<path d="M83.1343 26.1195L78.806 24.3284C78.5075 23.2837 78.0597 22.2389 77.6119 21.3434L79.5522 17.015C79.8507 16.418 79.7015 15.821 79.2537 15.3732L74.4776 10.5971C74.0298 10.1493 73.4328 10.0001 72.8358 10.2986L68.5075 12.0896C67.6119 11.6419 66.5672 11.1941 65.5224 10.8956L63.7313 6.56724C63.2836 5.97022 62.6866 5.52246 62.0895 5.52246H55.2239C54.6269 5.52246 54.0298 5.97022 53.8806 6.41798L52.0896 10.7463C51.0448 11.0448 50 11.4926 49.1045 11.9404L44.7761 10.2986C44.1791 10.0001 43.5821 10.1493 43.1343 10.5971L38.3582 15.3732C37.9104 15.821 37.7612 16.418 38.0597 17.015L40 21.3434C39.5522 22.2389 39.1045 23.2837 38.806 24.3284L34.3284 26.1195C33.7313 26.2687 33.4328 26.8657 33.4328 27.4628V34.3284C33.4328 34.9254 33.8806 35.5225 34.3284 35.6717L38.6567 37.4628C38.9552 38.5075 39.403 39.5523 39.8507 40.4478L38.0597 44.7762C37.7612 45.3732 37.9104 45.9702 38.3582 46.418L43.1343 51.3434C43.5821 51.7911 44.1791 51.9404 44.7761 51.6419L49.1045 49.7016C50.1492 50.1493 51.0448 50.5971 52.0896 50.8956L53.8806 55.2239C54.0298 55.821 54.6269 56.1195 55.2239 56.1195H62.0895C62.6866 56.1195 63.2836 55.821 63.4328 55.2239L65.2239 50.8956C66.2687 50.5971 67.3134 50.1493 68.209 49.7016L72.5373 51.4926C73.1343 51.7911 73.7313 51.6419 74.1791 51.1941L78.9552 46.2687C79.403 45.821 79.5522 45.2239 79.2537 44.6269L77.3134 40.2986C77.7612 39.4031 78.2089 38.3583 78.5075 37.3135L82.8358 35.5225C83.4328 35.3732 83.7313 34.7762 83.7313 34.1792V27.3135C84.0298 26.8657 83.7313 26.418 83.1343 26.1195ZM58.6567 42.3881C52.2388 42.3881 47.1642 37.1642 47.1642 30.8956C47.1642 24.6269 52.2388 19.4031 58.6567 19.4031C64.9254 19.4031 70.1492 24.6269 70.1492 30.8956C70.1492 37.3135 65.0746 42.3881 58.6567 42.3881ZM19.5522 55.5225V85.0747C19.5522 85.9702 18.806 86.5672 18.0597 86.5672H6.71641C5.82089 86.5672 5.22388 85.821 5.22388 85.0747V55.5225C5.22388 54.6269 5.97015 54.0299 6.71641 54.0299H18.0597C18.9552 54.0299 19.5522 54.6269 19.5522 55.5225ZM93.1343 70.0001L57.1642 92.5374C53.4328 94.9254 48.5075 95.0747 44.6269 92.8359L22.5373 80.4478V59.4031H25.6716C35.0746 59.2538 42.5373 59.1045 45.0746 64.6269C45.8209 66.2687 47.6119 67.3135 49.5522 67.3135H59.403C61.194 67.3135 62.5373 68.6568 62.5373 70.4478C62.5373 72.0896 61.194 73.5822 59.403 73.5822H41.9403C41.0448 73.5822 40.4478 74.1792 40.4478 75.0747C40.4478 75.9702 41.0448 76.5672 41.9403 76.5672H59.403C61.791 76.5672 63.8806 75.224 64.9254 73.1344L90.2985 64.1792C91.791 63.5822 93.5821 64.0299 94.3284 65.5225C95.2239 67.015 94.7761 69.1045 93.1343 70.0001Z" fill="#99D6EF"/>
<path fill-rule="evenodd" clip-rule="evenodd" d="M83.1343 26.1195L78.806 24.3284C78.5075 23.2837 78.0597 22.2389 77.6119 21.3434L79.5522 17.015C79.8507 16.418 79.7015 15.821 79.2537 15.3732L74.4776 10.5971C74.0298 10.1493 73.4328 10.0001 72.8358 10.2986L68.5075 12.0896C67.6119 11.6419 66.5672 11.1941 65.5224 10.8956L63.7313 6.56724C63.2836 5.97022 62.6866 5.52246 62.0895 5.52246H55.2239C54.6269 5.52246 54.0298 5.97022 53.8806 6.41798L52.0896 10.7463C51.0448 11.0448 50 11.4926 49.1045 11.9404L44.7761 10.2986C44.1791 10.0001 43.5821 10.1493 43.1343 10.5971L38.3582 15.3732C37.9104 15.821 37.7612 16.418 38.0597 17.015L40 21.3434C39.5522 22.2389 39.1045 23.2837 38.806 24.3284L34.3284 26.1195C33.7313 26.2687 33.4328 26.8657 33.4328 27.4628V34.3284C33.4328 34.9254 33.8806 35.5225 34.3284 35.6717L38.6567 37.4628C38.9552 38.5075 39.403 39.5523 39.8507 40.4478L38.0597 44.7762C37.7612 45.3732 37.9104 45.9702 38.3582 46.418L43.1343 51.3434C43.5821 51.7911 44.1791 51.9404 44.7761 51.6419L49.1045 49.7016C49.35 49.8068 49.5873 49.912 49.8202 50.0153C50.5784 50.3515 51.2903 50.6672 52.0896 50.8956L53.8806 55.2239C54.0298 55.821 54.6269 56.1195 55.2239 56.1195H62.0895C62.6866 56.1195 63.2836 55.821 63.4328 55.2239L65.2239 50.8956C66.2687 50.5971 67.3134 50.1493 68.209 49.7016L72.5373 51.4926C73.1343 51.7911 73.7313 51.6419 74.1791 51.1941L78.9552 46.2687C79.403 45.821 79.5522 45.2239 79.2537 44.6269L77.3134 40.2986C77.7612 39.4031 78.2089 38.3583 78.5075 37.3135L82.8358 35.5225C83.4328 35.3732 83.7313 34.7762 83.7313 34.1792V27.3135C84.0298 26.8657 83.7313 26.418 83.1343 26.1195ZM58.6567 42.3881C52.2388 42.3881 47.1642 37.1642 47.1642 30.8956C47.1642 24.6269 52.2388 19.4031 58.6567 19.4031C64.9254 19.4031 70.1492 24.6269 70.1492 30.8956C70.1492 37.3135 65.0746 42.3881 58.6567 42.3881Z" fill="#0098D6"/>
</svg>
