<svg width="100" height="100" viewBox="0 0 100 100" fill="none" xmlns="http://www.w3.org/2000/svg">
<g clip-path="url(#clip0_680_442)">
<path d="M97.0703 64.6479C95.451 64.6479 94.1406 65.9582 94.1406 67.5776V82.7656C93.2197 82.4373 92.243 82.226 91.2109 82.226C86.3645 82.226 82.4219 86.1686 82.4219 91.0151C82.4219 95.8615 86.3645 99.9994 91.2109 99.9994C96.0574 99.9994 100 95.8615 100 91.0151V67.5776C100 65.9582 98.6897 64.6479 97.0703 64.6479ZM9.99648 30.2955C11.1352 29.1512 11.1352 27.2944 9.99082 26.1528C7.36426 23.535 5.85938 19.7555 5.85938 15.7873C5.85938 11.8192 7.36426 8.03967 9.99063 5.4219C11.135 4.2803 11.135 2.42346 9.99629 1.27913C8.84043 0.128931 6.99219 0.13479 5.84785 1.27346C2.13437 4.98127 0 10.274 0 15.7873C0 21.3006 2.13437 26.5934 5.84785 30.3014C6.98906 31.4367 8.8373 31.4489 9.99648 30.2955ZM14.1221 9.57327C12.4627 11.2326 11.5471 13.4414 11.5471 15.7873C11.5471 18.1305 12.4627 20.3364 14.1162 21.9987C15.2484 23.1365 17.1084 23.1549 18.2646 22.0043C19.409 20.8627 19.409 19.0059 18.2703 17.8615C17.7096 17.3037 17.4062 16.5684 17.4062 15.7873C17.4062 15.0063 17.7096 14.2709 18.2646 13.716C19.409 12.5717 19.409 10.7176 18.2646 9.57327C17.1203 8.42893 15.2664 8.42874 14.1221 9.57327ZM14.6484 53.3211V58.3965L19.043 55.8588L14.6484 53.3211Z" fill="#99D6EF"/>
<path d="M0 41.2109V70.5078C0 72.1271 1.31035 73.4375 2.92969 73.4375H32.2266C33.8459 73.4375 35.1562 72.1271 35.1562 70.5078V41.2109C35.1562 39.5916 33.8459 38.2812 32.2266 38.2812H2.92969C1.31035 38.2812 0 39.5916 0 41.2109ZM8.78906 48.249C8.78955 47.7348 8.92511 47.2297 9.1822 46.7843C9.43928 46.339 9.80885 45.9689 10.2539 45.7113C10.6997 45.4555 11.2047 45.3208 11.7188 45.3208C12.2328 45.3208 12.7378 45.4555 13.1836 45.7113L26.3672 53.3217C27.2713 53.8453 27.832 54.8123 27.832 55.8594C27.832 56.9064 27.2713 57.8734 26.3672 58.3971L13.1836 66.0074C12.738 66.264 12.2329 66.399 11.7188 66.399C11.2046 66.399 10.6995 66.264 10.2539 66.0074C9.80885 65.7498 9.43928 65.3798 9.1822 64.9344C8.92511 64.4891 8.78955 63.984 8.78906 63.4697V48.249ZM97.0703 20.7031H67.7734C66.1541 20.7031 64.8438 22.0135 64.8438 23.6328V50.5762L74.125 36.6562C74.3462 36.3245 74.6329 36.0414 74.9674 35.8244C75.302 35.6075 75.6774 35.4612 76.0705 35.3945C76.8373 35.2457 77.6727 35.4547 78.3193 35.9381L100 52.1986V23.6328C100 22.0135 98.6897 20.7031 97.0703 20.7031ZM88.2812 35.3516C86.6633 35.3516 85.3516 34.0398 85.3516 32.4219C85.3516 30.8035 86.6633 29.4922 88.2812 29.4922C89.8992 29.4922 91.2109 30.8035 91.2109 32.4219C91.2109 34.0398 89.8992 35.3516 88.2812 35.3516Z" fill="#99D6EF"/>
<path d="M77.2833 42.4854L68.3638 55.8605H95.1183L77.2833 42.4854Z" fill="#99D6EF"/>
<path d="M23.4375 8.98438V32.4219H32.2266C37.073 32.4219 41.0156 36.3645 41.0156 41.2109V70.5078C41.0156 75.3543 37.073 79.2969 32.2266 79.2969H23.4375V91.0156C23.4375 95.8621 27.3801 100 32.2266 100H67.7734C72.6199 100 76.5625 95.8621 76.5625 91.0156V61.7188H67.7734C62.927 61.7188 58.9844 57.7762 58.9844 52.9297V23.6328C58.9844 18.7863 62.927 14.8438 67.7734 14.8438H76.5625V8.98438C76.5625 4.13789 72.6199 0 67.7734 0H32.2266C27.3801 0 23.4375 4.13789 23.4375 8.98438ZM50 11.9141C51.618 11.9141 52.9297 13.2254 52.9297 14.8438C52.9297 16.4617 51.618 17.7734 50 17.7734C48.382 17.7734 47.0703 16.4617 47.0703 14.8438C47.0703 13.2254 48.382 11.9141 50 11.9141ZM43.9453 82.2266H56.0547C57.674 82.2266 58.9844 83.5369 58.9844 85.1562C58.9844 86.7756 57.674 88.0859 56.0547 88.0859H43.9453C42.326 88.0859 41.0156 86.7756 41.0156 85.1562C41.0156 83.5369 42.326 82.2266 43.9453 82.2266Z" fill="#0098D6"/>
</g>
<defs>
<clipPath id="clip0_680_442">
<rect width="100" height="100" fill="white"/>
</clipPath>
</defs>
</svg>
