<svg width="100" height="100" viewBox="0 0 100 100" fill="none" xmlns="http://www.w3.org/2000/svg">
<g clip-path="url(#clip0_680_452)">
<path d="M90.7941 0H9.20586C4.22793 0 0 4.01523 0 9.20566V34.3098C0 39.5006 4.22773 43.5156 9.20586 43.5156H15.3154C19.7377 31.8666 36.3348 31.874 40.7523 43.5156H59.6225V56.276C59.6264 58.9127 62.8355 60.1588 64.6238 58.3475L79.4557 43.5154H90.7943C95.7723 43.5154 100 39.5002 100 34.3098V9.20566C100 4.01484 95.7723 0 90.7941 0ZM62.5521 30.9635H15.4818C13.8639 30.9635 12.5521 29.6518 12.5521 28.0338C12.5521 26.4158 13.8639 25.1041 15.4818 25.1041H62.5521C66.4205 25.2414 66.4455 30.8158 62.5521 30.9635ZM84.5182 18.4115H15.4818C13.8639 18.4115 12.5521 17.0998 12.5521 15.4818C12.5521 13.8639 13.8639 12.5521 15.4818 12.5521H84.5184C88.3795 12.6859 88.4182 18.2615 84.5182 18.4115Z" fill="#0098D6"/>
<path d="M46.8621 59.6225H30.9637V55.4902C38.7043 52.2141 36.5504 40.7279 28.034 40.5859C19.5166 40.7287 17.3648 52.2154 25.1043 55.4902V59.6225H9.20586C4.12988 59.6225 0 63.7521 0 68.8281V90.7943C0 95.8703 4.12988 100 9.20586 100H46.8621C51.9381 100 56.0678 95.8703 56.0678 90.7943V68.8281C56.0676 63.7521 51.9381 59.6225 46.8621 59.6225ZM15.4818 78.0338C13.8705 78.0338 12.5521 76.7213 12.5521 75.1041C12.701 71.2232 18.2633 71.2242 18.4115 75.1041C18.4115 76.7213 17.093 78.0338 15.4818 78.0338ZM31.1719 87.4478H24.8959C21.0156 87.3051 21.0135 81.732 24.8959 81.5885H31.1719C35.0522 81.7314 35.0543 87.3043 31.1719 87.4478ZM40.5859 78.0338C38.9746 78.0338 37.6562 76.7213 37.6562 75.1041C37.8051 71.2232 43.3674 71.2242 43.5156 75.1041C43.5156 76.7213 42.1973 78.0338 40.5859 78.0338Z" fill="#99D6EF"/>
</g>
<defs>
<clipPath id="clip0_680_452">
<rect width="100" height="100" fill="white"/>
</clipPath>
</defs>
</svg>
