<svg width="100" height="100" viewBox="0 0 100 100" fill="none" xmlns="http://www.w3.org/2000/svg">
<path d="M91.9715 3.31601C91.6201 2.64334 91.0091 2.12479 90.2652 1.86799C89.5213 1.61119 88.7016 1.63587 87.9764 1.93691C85.1643 3.09277 71.0039 9.21816 68.3516 16.1334C65.4256 23.7455 69.563 32.1395 77.5847 34.9074C85.5596 37.6639 94.4635 33.7619 97.3846 26.1525C100.037 19.2375 93.3413 5.91367 91.9715 3.31601ZM86.8262 58.8051L86.0511 64.683C87.1607 65.1275 87.9404 66.1697 87.9404 67.3828V79.1016C87.9404 80.718 86.5553 82.0312 84.8506 82.0312H83.7632L82.9903 88.0859H84.8506C89.9619 88.0859 94.1199 83.948 94.1199 79.1016V67.3828C94.1199 63.1803 90.9894 59.6674 86.8262 58.8051ZM14.1481 52.7344L19.3136 92.301C19.89 96.6898 23.8457 100 28.5104 100H67.036C71.7007 100 75.6567 96.6898 76.2328 92.301L81.3983 52.7344H14.1481ZM53.627 1.49746C52.5769 -0.488087 49.1491 -0.488087 48.0992 1.49746L42.7735 17.5781H58.9525L53.627 1.49746ZM41.5938 23.4375H60.1324V46.875H41.5938V23.4375ZM75.4665 40.4121C72.3937 39.3506 69.7282 37.6287 67.5007 35.4793L66.312 38.5756V46.875H82.8536L84.9177 41.4971C81.794 41.785 78.9487 41.6145 75.4665 40.4121ZM25.9789 2.17266C25.5414 0.607811 23.8486 -0.319337 22.1952 0.101366L4.29013 4.77226C2.64266 5.19004 1.66505 6.79785 2.10566 8.35996L4.61332 17.2355L13.4569 14.574C15.1074 14.1621 16.8031 15.0832 17.2406 16.6453C17.6812 18.2074 16.7036 19.8152 15.0561 20.233L6.21258 22.8945L7.81226 28.5564L16.6554 25.8949C18.3119 25.4686 19.9985 26.4014 20.4391 27.9662C20.8797 29.5283 19.9021 31.1361 18.2547 31.5539L9.41153 34.2154L11.0104 39.8746L19.8539 37.2131C20.2458 37.1122 20.6549 37.0858 21.0576 37.1354C21.4603 37.1851 21.8486 37.3097 22.2003 37.5022C22.552 37.6948 22.8601 37.9513 23.1067 38.2572C23.3534 38.563 23.5339 38.9121 23.6377 39.2844C24.0783 40.8465 23.1007 42.4543 21.4532 42.8721L12.6096 45.5336L12.9887 46.8746H35.4142V35.6791L25.9789 2.17266Z" fill="#0098D6"/>
<path fill-rule="evenodd" clip-rule="evenodd" d="M86.0509 64.683L86.826 58.8051C90.9892 59.6674 94.1197 63.1803 94.1197 67.3828V79.1016C94.1197 83.948 89.9617 88.0859 84.8504 88.0859H82.9902L83.763 82.0312H84.8504C86.5551 82.0312 87.9402 80.718 87.9402 79.1016V67.3828C87.9402 66.1697 87.1605 65.1275 86.0509 64.683ZM19.3134 92.301L14.1479 52.7344H81.3981L76.2326 92.301C75.6565 96.6898 71.7005 100 67.0358 100H28.5102C23.8455 100 19.8898 96.6898 19.3134 92.301Z" fill="#99D6EF"/>
</svg>
