<svg width="100" height="100" viewBox="0 0 100 100" fill="none" xmlns="http://www.w3.org/2000/svg">
<g clip-path="url(#clip0_680_432)">
<path d="M73.4805 12.6953C71.9277 12.6953 70.6641 13.959 70.6641 15.5117V24.4902C70.6641 26.043 71.9277 27.3047 73.4805 27.3047C75.0332 27.3047 76.2969 26.043 76.2969 24.4902V15.5117C76.2969 13.959 75.0332 12.6953 73.4805 12.6953Z" fill="#0098D6"/>
<path d="M87.7598 0H12.2402C5.49023 0 0 5.49023 0 12.2402V43.4238C0 50.1738 5.49023 55.6641 12.2402 55.6641H24.8477C28.6348 45.4453 38.4805 38.1426 50 38.1426C61.5195 38.1426 71.3652 45.4453 75.1523 55.6641H87.7598C94.5098 55.6641 100 50.1738 100 43.4238V12.2402C100 5.49023 94.5098 0 87.7598 0ZM36.8848 26.3516C36.1758 30.3223 32.3984 33.2031 27.9062 33.2031C24.3379 33.2031 20.9844 31.7812 18.6836 29.2969C17.5859 28.1094 17.5801 26.2344 18.75 25.1191C19.9473 23.9805 21.8398 24.0547 22.9434 25.2715C24.1191 26.5703 25.9746 27.3438 27.9062 27.3438C29.666 27.3438 30.9414 26.2949 31.1152 25.3223C31.3438 24.043 29.3008 23.1816 28.6699 22.9492C26.1504 22.0195 23.8223 21.0234 22.9395 20.6387C22.3086 20.3633 21.748 20.0098 21.2754 19.5879C19.4219 17.9297 18.6113 15.3672 19.1602 12.9004C19.75 10.2441 21.7617 8.1582 24.5391 7.32227C30.3223 5.58008 35.0742 9.49805 35.2734 9.66602C36.543 10.6582 36.7363 12.5039 35.7012 13.7363C34.6914 15.0879 32.7246 15.2617 31.4766 14.1328C31.4512 14.1113 28.9434 12.1133 26.2285 12.9316C25.2285 13.2344 24.9531 13.8379 24.8789 14.1719C24.7715 14.6602 25.0332 15.1562 25.4922 15.3574C26.541 15.8203 28.4707 16.625 30.6973 17.4512C36.0762 19.4355 37.4199 23.3516 36.8848 26.3516ZM55.0547 17.0898C56.6738 17.0898 57.9844 18.4023 57.9844 20.0195C57.9844 21.6367 56.6738 22.9492 55.0547 22.9492H50V27.3438H55.6914C57.3086 27.3438 58.6211 28.6562 58.6211 30.2734C58.6211 31.8906 57.3086 33.2031 55.6914 33.2031H47.0703C45.4512 33.2031 44.1406 31.8906 44.1406 30.2734V9.76562C44.1406 8.14844 45.4512 6.83594 47.0703 6.83594H55.6914C57.3086 6.83594 58.6211 8.14844 58.6211 9.76562C58.6211 11.3828 57.3086 12.6953 55.6914 12.6953H50V17.0898H55.0547ZM82.1562 24.4902C82.1562 29.2734 78.2656 33.1641 73.4805 33.1641C68.6973 33.1641 64.8047 29.2734 64.8047 24.4902V15.5117C64.8047 10.7285 68.6973 6.83594 73.4805 6.83594C78.2656 6.83594 82.1562 10.7285 82.1562 15.5117V24.4902ZM25.8809 76.6621L17.5469 84.9961C15.8848 86.6562 14.9707 88.8633 14.9707 91.2109C14.9707 93.5586 15.8848 95.7656 17.5449 97.4238C19.2051 99.0859 21.4121 100 23.7598 100C26.1074 100 28.3145 99.0859 29.9746 97.4258L38.3145 89.0859C32.9082 86.457 28.5137 82.0645 25.8809 76.6621Z" fill="#0098D6"/>
<path d="M50 85.9082C61.5721 85.9082 70.9531 76.5272 70.9531 64.9551C70.9531 53.383 61.5721 44.002 50 44.002C38.4279 44.002 29.0469 53.383 29.0469 64.9551C29.0469 76.5272 38.4279 85.9082 50 85.9082Z" fill="#99D6EF"/>
<path fill-rule="evenodd" clip-rule="evenodd" d="M17.5469 84.9961L25.8809 76.6621C28.5137 82.0645 32.9082 86.457 38.3145 89.0859L29.9746 97.4258C28.3145 99.0859 26.1074 100 23.7598 100C21.4121 100 19.2051 99.0859 17.5449 97.4238C15.8848 95.7656 14.9707 93.5586 14.9707 91.2109C14.9707 88.8633 15.8848 86.6562 17.5469 84.9961Z" fill="#99D6EF"/>
</g>
<defs>
<clipPath id="clip0_680_432">
<rect width="100" height="100" fill="white"/>
</clipPath>
</defs>
</svg>
