<svg width="100" height="100" viewBox="0 0 100 100" fill="none" xmlns="http://www.w3.org/2000/svg">
<g clip-path="url(#clip0_680_422)">
<path d="M26.5625 70.5078H2.92969C1.31172 70.5078 0 71.8195 0 73.4375V97.0703C0 98.6883 1.31172 100 2.92969 100H26.5625C28.1805 100 29.4922 98.6883 29.4922 97.0703V73.4375C29.4922 71.8195 28.1805 70.5078 26.5625 70.5078ZM61.7188 70.5078H38.2812C36.6633 70.5078 35.3516 71.8195 35.3516 73.4375V97.0703C35.3516 98.6883 36.6633 100 38.2812 100H61.7188C63.3367 100 64.6484 98.6883 64.6484 97.0703V73.4375C64.6484 71.8195 63.3367 70.5078 61.7188 70.5078ZM97.0703 70.5078H73.4375C71.8195 70.5078 70.5078 71.8195 70.5078 73.4375V97.0703C70.5078 98.6883 71.8195 100 73.4375 100H97.0703C98.6883 100 100 98.6883 100 97.0703V73.4375C100 71.8195 98.6883 70.5078 97.0703 70.5078ZM17.7734 58.7891H47.0703V64.6484H52.9297V58.7891H82.2266V64.6484H88.0859V55.8594C88.0859 54.2422 86.7734 52.9297 85.1562 52.9297H52.9297V47.0703H47.0703V52.9297H14.8438C13.2266 52.9297 11.9141 54.2422 11.9141 55.8594V64.6484H17.7734V58.7891ZM26.5625 41.2109H73.4375C75.0555 41.2109 76.3672 39.8992 76.3672 38.2812V2.92969C76.3672 1.31172 75.0555 0 73.4375 0H26.5625C24.9445 0 23.6328 1.31172 23.6328 2.92969V38.2812C23.6328 39.8992 24.9445 41.2109 26.5625 41.2109ZM38.2812 11.9141H55.8594C57.4773 11.9141 58.7891 13.2258 58.7891 14.8438C58.7891 16.4617 57.4773 17.7734 55.8594 17.7734H38.2812C36.6633 17.7734 35.3516 16.4617 35.3516 14.8438C35.3516 13.2258 36.6633 11.9141 38.2812 11.9141ZM38.2812 23.6328H61.7188C63.3367 23.6328 64.6484 24.9445 64.6484 26.5625C64.6484 28.1805 63.3367 29.4922 61.7188 29.4922H38.2812C36.6633 29.4922 35.3516 28.1805 35.3516 26.5625C35.3516 24.9445 36.6633 23.6328 38.2812 23.6328Z" fill="#0098D6"/>
<path fill-rule="evenodd" clip-rule="evenodd" d="M26.5625 70.5078H2.92969C1.31172 70.5078 0 71.8195 0 73.4375V97.0703C0 98.6883 1.31172 100 2.92969 100H26.5625C28.1805 100 29.4922 98.6883 29.4922 97.0703V73.4375C29.4922 71.8195 28.1805 70.5078 26.5625 70.5078ZM61.7188 70.5078H38.2812C36.6633 70.5078 35.3516 71.8195 35.3516 73.4375V97.0703C35.3516 98.6883 36.6633 100 38.2812 100H61.7188C63.3367 100 64.6484 98.6883 64.6484 97.0703V73.4375C64.6484 71.8195 63.3367 70.5078 61.7188 70.5078ZM97.0703 70.5078H73.4375C71.8195 70.5078 70.5078 71.8195 70.5078 73.4375V97.0703C70.5078 98.6883 71.8195 100 73.4375 100H97.0703C98.6883 100 100 98.6883 100 97.0703V73.4375C100 71.8195 98.6883 70.5078 97.0703 70.5078Z" fill="#99D6EF"/>
</g>
<defs>
<clipPath id="clip0_680_422">
<rect width="100" height="100" fill="white"/>
</clipPath>
</defs>
</svg>
