<svg width="100" height="100" viewBox="0 0 100 100" fill="none" xmlns="http://www.w3.org/2000/svg">
<g clip-path="url(#clip0_680_438)">
<path d="M95.1186 59.0963L98.2436 57.673C99.726 56.998 100.402 55.1997 99.7533 53.6567C99.1049 52.1135 97.3772 51.4095 95.8951 52.0851L92.7702 53.5083C91.2878 54.1833 90.6118 55.9816 91.2604 57.5246C91.9094 59.0688 93.6377 59.7711 95.1186 59.0963ZM98.2436 79.3296L95.1186 77.9064C93.6364 77.2313 91.9089 77.9348 91.2604 79.478C90.6118 81.0212 91.2878 82.8193 92.7702 83.4943L95.8951 84.9175C97.3773 85.5928 99.1051 84.8889 99.7533 83.3459C100.402 81.8027 99.726 80.0046 98.2436 79.3296ZM97.0694 65.4516H93.9444C92.3264 65.4516 91.0147 66.817 91.0147 68.5013C91.0147 70.1856 92.3264 71.5511 93.9444 71.5511H97.0694C98.6873 71.5511 99.999 70.1856 99.999 68.5013C99.999 66.817 98.6873 65.4516 97.0694 65.4516ZM56.5346 50.2028C80.1271 38.023 78.549 38.8168 79.1008 38.6015V10.1493C79.1008 5.10497 75.1575 1 70.3118 1H8.78897C3.94332 1 0 5.10497 0 10.1493V59.1487C0 64.193 3.94332 68.298 8.78897 68.298H29.4919V63.4184C29.4919 56.1315 35.1871 50.2028 42.1871 50.2028H56.5346ZM29.1419 49.5757C27.1982 50.5876 24.9021 49.1126 24.9021 46.8478V22.4498C24.9021 20.1832 27.1984 18.7104 29.1419 19.7219L52.5792 31.9209C54.7358 33.0434 54.734 36.255 52.5792 37.3765L29.1419 49.5757Z" fill="#0098D6"/>
<path d="M30.7614 41.9133L44.7181 34.649L30.7614 27.3845V41.9133ZM42.1871 56.3023C38.4178 56.3023 35.3512 59.4945 35.3512 63.4184V73.5842C35.3512 76.9796 37.6481 79.8254 40.709 80.531L38.3207 95.4479C38.0231 97.3063 39.402 98.9991 41.2105 98.9991H52.9292C53.6173 98.9991 54.2834 98.747 54.8108 98.2869C55.3382 97.8269 55.6933 97.1883 55.8137 96.483L58.4602 80.9862L58.7885 81.1558V55.847L57.9066 56.3023H42.1871ZM80.9242 44.4206L64.6478 52.8225V84.1799L80.9242 92.5818C82.8644 93.5835 85.1554 92.1129 85.1554 89.8496V47.153C85.1554 44.8913 82.8677 43.4172 80.9242 44.4206Z" fill="#0098D6"/>
<path fill-rule="evenodd" clip-rule="evenodd" d="M98.2439 57.6735L95.1189 59.0967C93.6381 59.7716 91.9098 59.0693 91.2608 57.5251C90.6121 55.9821 91.2881 54.1838 92.7705 53.5088L95.8955 52.0856C97.3775 51.4099 99.1052 52.114 99.7537 53.6572C100.402 55.2002 99.7263 56.9985 98.2439 57.6735ZM95.1189 77.9068L98.2439 79.3301C99.7263 80.0051 100.402 81.8032 99.7537 83.3464C99.1054 84.8894 97.3777 85.5932 95.8955 84.918L92.7705 83.4948C91.2881 82.8198 90.6121 81.0217 91.2608 79.4785C91.9092 77.9353 93.6367 77.2318 95.1189 77.9068ZM93.9447 65.452H97.0697C98.6877 65.452 99.9994 66.8175 99.9994 68.5018C99.9994 70.1861 98.6877 71.5516 97.0697 71.5516H93.9447C92.3268 71.5516 91.0151 70.1861 91.0151 68.5018C91.0151 66.8175 92.3268 65.452 93.9447 65.452Z" fill="#99D6EF"/>
<path fill-rule="evenodd" clip-rule="evenodd" d="M35.3516 63.4188C35.3516 59.495 38.4181 56.3027 42.1874 56.3027H57.907L58.7888 55.8475V81.1562L58.4605 80.9867L55.8141 96.4835C55.6936 97.1888 55.3386 97.8274 54.8112 98.2874C54.2838 98.7475 53.6176 98.9996 52.9295 98.9995H41.2109C39.4023 98.9995 38.0234 97.3067 38.3211 95.4484L40.7093 80.5314C37.6484 79.8259 35.3516 76.9801 35.3516 73.5847V63.4188ZM64.6481 52.823L80.9245 44.4211C82.8681 43.4177 85.1557 44.8918 85.1557 47.1535V89.8501C85.1557 92.1134 82.8648 93.584 80.9245 92.5823L64.6481 84.1804V52.823Z" fill="#99D6EF"/>
</g>
<defs>
<clipPath id="clip0_680_438">
<rect width="100" height="100" fill="white"/>
</clipPath>
</defs>
</svg>
