<svg width="100" height="100" viewBox="0 0 100 100" fill="none" xmlns="http://www.w3.org/2000/svg">
<g clip-path="url(#clip0_680_426)">
<path d="M47.0703 53.3795C43.6604 52.1701 41.2109 48.9137 41.2109 45.0944C41.2109 40.2481 45.1537 36.3053 50 36.3053C54.8463 36.3053 58.7891 40.2481 58.7891 45.0944C58.7891 48.9137 56.3397 52.1701 52.9297 53.3795V58.2076H71.3196L67.7221 31.1307C67.2723 27.7469 64.3592 25.1953 60.9455 25.1953H39.0508C35.6369 25.1953 32.7236 27.7473 32.2744 31.1316L28.6797 58.2074H47.0703V53.3795Z" fill="#0098D6"/>
<path d="M50 48.0254C51.618 48.0254 52.9297 46.7137 52.9297 45.0957C52.9297 43.4777 51.618 42.166 50 42.166C48.382 42.166 47.0703 43.4777 47.0703 45.0957C47.0703 46.7137 48.382 48.0254 50 48.0254Z" fill="#0098D6"/>
<path d="M50 14.4529C51.618 14.4529 52.9297 13.1412 52.9297 11.5233V2.92969C52.9297 1.31172 51.618 0 50 0C48.3821 0 47.0703 1.31172 47.0703 2.92969V11.5233C47.0703 13.1412 48.3821 14.4529 50 14.4529ZM5.12696 50.6836H13.7207C15.3387 50.6836 16.6504 49.3719 16.6504 47.7539C16.6504 46.136 15.3387 44.8243 13.7207 44.8243H5.12696C3.50899 44.8243 2.19727 46.136 2.19727 47.7539C2.19727 49.3719 3.50899 50.6836 5.12696 50.6836ZM83.3499 47.7539C83.3499 49.3719 84.6616 50.6836 86.2796 50.6836H94.8731C96.4911 50.6836 97.8028 49.3719 97.8028 47.7539C97.8028 46.136 96.4911 44.8243 94.8731 44.8243H86.2796C84.6616 44.8243 83.3499 46.136 83.3499 47.7539ZM22.2752 24.1721C22.8473 24.7442 23.5971 25.0303 24.3467 25.0303C25.0963 25.0303 25.8463 24.7442 26.4182 24.1721C27.5623 23.0279 27.5621 21.1731 26.4182 20.0289L20.3416 13.9525C19.1977 12.8086 17.3426 12.8086 16.1984 13.9525C15.0543 15.0967 15.0543 16.9516 16.1984 18.0957L22.2752 24.1721ZM75.6536 25.0301C76.4032 25.0301 77.1532 24.744 77.7251 24.1719L83.8016 18.0955C84.9456 16.9516 84.9458 15.0967 83.8016 13.9524C82.6579 12.8082 80.8028 12.8082 79.6585 13.9524L73.5819 20.0287C72.4378 21.1727 72.4378 23.0276 73.5819 24.1719C73.8536 24.4444 74.1765 24.6605 74.5321 24.8078C74.8876 24.9551 75.2687 25.0306 75.6536 25.0301ZM24.4141 66.9965V71.4856C24.9874 71.9633 25.5327 72.4736 26.0473 73.0139H73.9526C74.4672 72.4736 75.0125 71.9633 75.5858 71.4856V66.9965C75.5858 65.3786 74.2741 64.0668 72.6561 64.0668H27.3438C25.7258 64.0668 24.4141 65.3786 24.4141 66.9965Z" fill="#0098D6"/>
<path d="M98.491 90.9453H92.2616L89.2485 86.4182L92.2616 81.891H98.491C98.756 81.891 99.0163 81.8212 99.2458 81.6886C99.4752 81.5561 99.6657 81.3654 99.7981 81.1359C99.9305 80.9064 100 80.646 100 80.381C99.9999 80.116 99.9299 79.8558 99.7973 79.6264C97.3744 75.4385 92.8672 72.8369 88.034 72.8369C83.4977 72.8369 79.2483 75.1287 76.7404 78.8731H23.2596C20.7517 75.1287 16.5023 72.8369 11.966 72.8369C7.13278 72.8369 2.62536 75.4387 0.2027 79.6264C0.0701168 79.8558 0.000257343 80.116 0.000143286 80.381C2.92293e-05 80.646 0.0696646 80.9063 0.20205 81.1358C0.334435 81.3653 0.524906 81.5559 0.754315 81.6885C0.983725 81.8211 1.24399 81.8909 1.50895 81.891H7.73845L10.7515 86.4182L7.73845 90.9453H1.50895C1.24397 90.9454 0.983666 91.0152 0.754221 91.1477C0.524777 91.2803 0.334278 91.4709 0.201881 91.7005C0.0694838 91.93 -0.000143551 92.1903 2.22207e-07 92.4553C0.000143996 92.7203 0.0700539 92.9806 0.2027 93.21C2.62555 97.3979 7.13278 99.9996 11.966 99.9996C16.5023 99.9996 20.7517 97.7078 23.2596 93.9635H76.7402C79.2483 97.7078 83.4975 99.9996 88.034 99.9996C92.8672 99.9996 97.3746 97.3979 99.7973 93.21C99.9299 92.9806 99.9997 92.7203 99.9999 92.4554C100 92.1904 99.9303 91.9301 99.798 91.7006C99.6656 91.471 99.4751 91.2804 99.2457 91.1478C99.0163 91.0153 98.756 90.9454 98.491 90.9453Z" fill="#99D6EF"/>
</g>
<defs>
<clipPath id="clip0_680_426">
<rect width="100" height="100" fill="white"/>
</clipPath>
</defs>
</svg>
